<svg xmlns="http://www.w3.org/2000/svg" width="56" height="56" viewBox="0 0 56 56"><defs><style>.a{fill:#fff;}</style></defs><path class="a" d="M28,0A28,28,0,1,0,56,28,28,28,0,0,0,28,0ZM50.644,25.986a72.554,72.554,0,0,0-14.987.995Q34.791,24.905,33.9,23c.37-.173.737-.348,1.1-.53A33.278,33.278,0,0,0,45.87,13.946,22.511,22.511,0,0,1,50.644,25.986ZM42.132,10.192a28.182,28.182,0,0,1-10.577,8.116c-.494-.931-.981-1.816-1.453-2.647a102.564,102.564,0,0,0-6.448-9.98A22.979,22.979,0,0,1,28,5.267,22.56,22.56,0,0,1,42.132,10.192ZM11.925,11.925A22.748,22.748,0,0,1,18.353,7.4a95.261,95.261,0,0,1,7.239,10.984c.327.576.661,1.181,1,1.809a52.525,52.525,0,0,1-7.072,1.635,67.758,67.758,0,0,1-13.608.762A22.589,22.589,0,0,1,11.925,11.925ZM5.267,28c0-.054,0-.108,0-.161.971.052,2.208.094,3.649.094a72.1,72.1,0,0,0,11.312-.881,56.335,56.335,0,0,0,8.761-2.106q.723,1.531,1.436,3.188a46.85,46.85,0,0,0-9.571,3.673A32.989,32.989,0,0,0,9.53,41.26,22.563,22.563,0,0,1,5.267,28Zm7.9,17.228c4-5.858,10.448-9.939,19.212-12.166a83.013,83.013,0,0,1,4.129,16.03,22.788,22.788,0,0,1-23.341-3.864Zm30.908-1.154A23.048,23.048,0,0,1,41.4,46.366,88.885,88.885,0,0,0,37.592,32,68.194,68.194,0,0,1,50.5,31.256,22.56,22.56,0,0,1,44.074,44.074Z"/></svg>