<svg xmlns="http://www.w3.org/2000/svg" width="56" height="56" viewBox="0 0 56 56"><defs><style>.a{fill:#fff;}</style></defs><path class="a" d="M48.456,0H7.548A7.546,7.546,0,0,0,0,7.546V48.454A7.546,7.546,0,0,0,7.548,56H27.724l.034-20.011h-5.2a1.227,1.227,0,0,1-1.227-1.222l-.025-6.451a1.227,1.227,0,0,1,1.227-1.231h5.19V20.852c0-7.233,4.418-11.172,10.87-11.172h5.295a1.227,1.227,0,0,1,1.227,1.227v5.439a1.227,1.227,0,0,1-1.226,1.227l-3.249,0c-3.509,0-4.189,1.667-4.189,4.115v5.4h7.711a1.227,1.227,0,0,1,1.218,1.371l-.765,6.451A1.227,1.227,0,0,1,43.4,35.989H36.486L36.451,56h12A7.546,7.546,0,0,0,56,48.454V7.546A7.546,7.546,0,0,0,48.456,0Z" transform="translate(-0.002)"/></svg>