<svg xmlns="http://www.w3.org/2000/svg" width="37.93" height="42.4" viewBox="0 0 37.93 42.4"><defs><style>.a{fill:#4b81ff;stroke:#4b81ff;stroke-width:0.5px;}</style></defs><g transform="translate(-6.748 -3.751)"><path class="a" d="M19.721,36.174c0-.6,0-1.206,0-1.809a.759.759,0,0,0-.371-.641,12.723,12.723,0,0,1,4.491-23.6,12.986,12.986,0,0,1,1.835-.136h.041a12.72,12.72,0,0,1,6.8,23.464c-.15.1-.3.186-.456.276a.76.76,0,0,0-.367.643q0,.815,0,1.634v.171c0,1.748,0,3.5,0,5.242A1.5,1.5,0,0,1,30.2,42.908l-1.5,0v.747A2.244,2.244,0,0,1,26.539,45.9H24.958a2.244,2.244,0,0,1-2.244-2.244V42.91l-1.5,0a1.5,1.5,0,0,1-1.492-1.492V36.174Zm4.489,6.737c0,.25,0,.5,0,.75a.762.762,0,0,0,.312.6.752.752,0,0,0,.432.14q.753,0,1.505,0a.747.747,0,0,0,.744-.749v-.745Zm5.986-3h-8.98q0,.749,0,1.5h0q1.04.015,2.082.018a.747.747,0,0,1,.09-.014l.073,0h4.489l.073,0,.028,0,2.143-.007h0v-1.5Zm-8.98-1.5H30.2v-1.5H21.218Q21.218,37.671,21.217,38.419ZM15.2,32.543c.024,0,.049.006.073.011a.748.748,0,0,1,.432,1.208c-.016.019-.033.036-.049.054l-2.116,2.117c-.019.016-.036.034-.055.049a.748.748,0,0,1-1.19-.8.74.74,0,0,1,.094-.2.793.793,0,0,1,.093-.113L14.6,32.758a.744.744,0,0,1,.383-.2.8.8,0,0,1,.146-.015l.073,0Zm21.163,0a.775.775,0,0,1,.144.028.755.755,0,0,1,.258.138c.019.016.036.033.054.049l2.117,2.117a.745.745,0,0,1,.093.113.753.753,0,0,1,.111.562.748.748,0,0,1-1.208.432c-.019-.016-.036-.033-.054-.049L35.76,33.816c-.016-.018-.034-.035-.049-.054a.748.748,0,0,1,.505-1.22A1.066,1.066,0,0,1,36.362,32.543Zm-9.907,2.883H30.2v-1.06a2.241,2.241,0,0,1,1.078-1.913l.051-.03a11.224,11.224,0,0,0-5.573-20.94h-.046A11.226,11.226,0,0,0,20.05,32.4a2.881,2.881,0,0,1,.252.162,2.278,2.278,0,0,1,.914,1.73c0,.025,0,.049,0,.075v1.06h3.741V31.994l-1.9-1.9c-.016-.018-.034-.036-.049-.055a.748.748,0,0,1,.505-1.219.872.872,0,0,1,.147,0c.024,0,.049.006.073.01a.768.768,0,0,1,.269.111.756.756,0,0,1,.114.094l1.587,1.587,1.587-1.587a.756.756,0,0,1,.114-.094.768.768,0,0,1,.269-.111.744.744,0,0,1,.147-.014l.073,0c.024,0,.049.006.073.01a.749.749,0,0,1,.432,1.208c-.016.019-.033.037-.049.055l-1.9,1.9v3.431Zm17.21-11.972H40.672c-.025,0-.049,0-.073,0a.748.748,0,0,1-.073-1.479.736.736,0,0,1,.146-.014h2.993l.073,0a.775.775,0,0,1,.144.028.748.748,0,0,1,.312,1.245.751.751,0,0,1-.456.215C43.715,23.453,43.69,23.453,43.665,23.454Zm-32.923,0H7.749A.736.736,0,0,1,7.6,23.44a.748.748,0,0,1,.073-1.479l.073,0h2.993l.073,0c.024,0,.049.006.073.01a.748.748,0,0,1,.383,1.263.75.75,0,0,1-.383.205A.736.736,0,0,1,10.742,23.454ZM13.083,9.263a.731.731,0,0,1,.144.029.751.751,0,0,1,.257.138c.019.015.036.033.055.049l2.116,2.116a.709.709,0,0,1,.093.114.748.748,0,0,1-.7,1.16.748.748,0,0,1-.4-.166c-.019-.016-.037-.033-.055-.049L12.48,10.537c-.016-.018-.034-.036-.049-.055a.749.749,0,0,1,.505-1.22,1.077,1.077,0,0,1,.147,0Zm25.4,0c.024,0,.049.006.073.011a.748.748,0,0,1,.432,1.208c-.016.019-.033.037-.049.055l-2.117,2.116a.75.75,0,0,1-.113.094.748.748,0,0,1-.994-1.1c.016-.019.033-.037.049-.055l2.117-2.116a.715.715,0,0,1,.113-.094.739.739,0,0,1,.27-.111.731.731,0,0,1,.146-.014l.073,0ZM25.781,4c.024,0,.049.006.073.01a.763.763,0,0,1,.57.517.729.729,0,0,1,.028.144c0,.025,0,.049,0,.073V7.741a.731.731,0,0,1-.014.146.748.748,0,0,1-1.479-.073c0-.024,0-.049,0-.073V4.748c0-.024,0-.049,0-.073a.762.762,0,0,1,.458-.618A.775.775,0,0,1,25.634,4a1.066,1.066,0,0,1,.147,0Z" transform="translate(0)"/></g></svg>