<svg xmlns="http://www.w3.org/2000/svg" width="56" height="56" viewBox="0 0 56 56"><defs><style>.a{fill:#fff;}</style></defs><path class="a" d="M39.317,0H16.683A16.7,16.7,0,0,0,0,16.683V39.317A16.7,16.7,0,0,0,16.683,56H39.317A16.7,16.7,0,0,0,56,39.317V16.683A16.7,16.7,0,0,0,39.317,0ZM50.366,39.317A11.049,11.049,0,0,1,39.317,50.366H16.683A11.049,11.049,0,0,1,5.634,39.317V16.683A11.049,11.049,0,0,1,16.683,5.634H39.317A11.049,11.049,0,0,1,50.366,16.683V39.317Z" transform="translate(0 0)"/><path class="a" d="M144.82,133a11.82,11.82,0,1,0,11.82,11.82A11.834,11.834,0,0,0,144.82,133Zm0,19.043a7.223,7.223,0,1,1,7.223-7.223A7.223,7.223,0,0,1,144.82,152.043Z" transform="translate(-116.82 -116.82)"/><circle class="a" cx="4.154" cy="4.154" r="4.154" transform="translate(37.953 9.871)"/></svg>