<svg xmlns="http://www.w3.org/2000/svg" width="40.958" height="36.996" viewBox="0 0 40.958 36.996"><defs><style>.a{fill:#4b81ff;}</style></defs><path class="a" d="M37.73,13.043H30.451V9.986A2.886,2.886,0,0,0,27.566,7.1H18.349a2.886,2.886,0,0,0-2.886,2.886v3.058H8.185A5.68,5.68,0,0,0,2.5,18.728V38.411A5.68,5.68,0,0,0,8.185,44.1H37.773a5.68,5.68,0,0,0,5.685-5.685V18.728A5.744,5.744,0,0,0,37.73,13.043ZM17.66,9.986a.68.68,0,0,1,.689-.689h9.217a.68.68,0,0,1,.689.689v3.058H17.66ZM8.185,15.24H37.773a3.5,3.5,0,0,1,3.489,3.489v4.393A61.04,61.04,0,0,1,27.652,25.4v-.948a2.3,2.3,0,0,0-2.283-2.283H20.632a2.3,2.3,0,0,0-2.283,2.283V25.4A61.04,61.04,0,0,1,4.74,23.121V18.728A3.411,3.411,0,0,1,8.185,15.24Zm17.227,9.217v4.178a.093.093,0,0,1-.086.086l-4.781-.086.086-4.307Zm12.318,17.4H8.185A3.5,3.5,0,0,1,4.7,38.368V25.4a64.233,64.233,0,0,0,13.61,2.2v1.034a2.3,2.3,0,0,0,2.283,2.283H25.24a2.3,2.3,0,0,0,2.283-2.283V27.6a64.617,64.617,0,0,0,13.7-2.2V38.411A3.465,3.465,0,0,1,37.73,41.856Z" transform="translate(-2.5 -7.1)"/></svg>