<svg xmlns="http://www.w3.org/2000/svg" width="56" height="46.581" viewBox="0 0 56 46.581"><defs><style>.a{fill:#fff;}</style></defs><path class="a" d="M55.11,39.91a22.175,22.175,0,0,1-3.861,1.3,12.039,12.039,0,0,0,3.178-5.061h0a.631.631,0,0,0-.923-.735h0a22.281,22.281,0,0,1-5.9,2.439,1.5,1.5,0,0,1-.369.046,1.565,1.565,0,0,1-1.034-.395,12.073,12.073,0,0,0-7.988-3.015,12.908,12.908,0,0,0-3.825.591A11.7,11.7,0,0,0,26.5,43.509a12.879,12.879,0,0,0-.286,4.446.432.432,0,0,1-.109.339.448.448,0,0,1-.333.151l-.043,0A31.657,31.657,0,0,1,3.972,36.818h0a.631.631,0,0,0-1.035.081h0A12.087,12.087,0,0,0,4.9,51.574a10.819,10.819,0,0,1-2.754-1.066h0a.631.631,0,0,0-.938.544h0A12.088,12.088,0,0,0,8.261,62.189q-.129,0-.258,0A10.864,10.864,0,0,1,5.97,62h0a.631.631,0,0,0-.72.813h0a12.1,12.1,0,0,0,9.558,8.23A22.278,22.278,0,0,1,2.33,74.83H.933a.925.925,0,0,0-.9.7.956.956,0,0,0,.458,1.057,33.137,33.137,0,0,0,16.651,4.49,33.591,33.591,0,0,0,14.229-3.019,31.422,31.422,0,0,0,10.411-7.8,34.2,34.2,0,0,0,6.375-10.677,33.729,33.729,0,0,0,2.167-11.686v-.184a2.054,2.054,0,0,1,.769-1.6,23.863,23.863,0,0,0,4.8-5.269h0a.631.631,0,0,0-.781-.928Z" transform="translate(0 -34.491)"/></svg>