<svg xmlns="http://www.w3.org/2000/svg" width="39.667" height="39.667" viewBox="0 0 39.667 39.667"><defs><style>.a{fill:#fff;}</style></defs><path class="a" d="M2,2V37.7H21.833V36.378H3.322V5.967H36.378v6.611H37.7V2ZM4.644,4.644H3.322V3.322H4.644Zm2.644,0H5.967V3.322H7.289Zm2.644,0H8.611V3.322H9.933Z" transform="translate(-2 -2)"/><path class="a" d="M50.528,20H35.983A1.948,1.948,0,0,0,34,21.983v23.8a1.948,1.948,0,0,0,1.983,1.983H50.528a1.948,1.948,0,0,0,1.983-1.983v-23.8A1.948,1.948,0,0,0,50.528,20ZM39.289,21.322h7.933a.661.661,0,1,1,0,1.322H39.289a.661.661,0,1,1,0-1.322Zm3.967,25.122a1.322,1.322,0,1,1,1.322-1.322A1.326,1.326,0,0,1,43.256,46.445Zm7.933-3.967H35.322V23.967H51.189Z" transform="translate(-12.844 -8.1)"/></svg>