<svg xmlns="http://www.w3.org/2000/svg" width="65" height="65" viewBox="0 0 65 65">
  <g id="Group_403" data-name="Group 403" transform="translate(18520 7501)">
    <g id="Group_401" data-name="Group 401" transform="translate(-19405 -9398)">
      <g id="Group_115" data-name="Group 115">
        <g id="Path_61" data-name="Path 61" transform="translate(885 1897)" fill="none">
          <path d="M32.5,0A32.5,32.5,0,1,1,0,32.5,32.5,32.5,0,0,1,32.5,0Z" stroke="none"/>
          <path d="M 32.5 2 C 28.38164901733398 2 24.38753890991211 2.806140899658203 20.62863922119141 4.396018981933594 C 16.9969596862793 5.932090759277344 13.73495864868164 8.13153076171875 10.9332389831543 10.9332389831543 C 8.13153076171875 13.73495864868164 5.932090759277344 16.9969596862793 4.396018981933594 20.62863922119141 C 2.806140899658203 24.38753890991211 2 28.38164901733398 2 32.5 C 2 36.61834716796875 2.806140899658203 40.61245727539062 4.396018981933594 44.37136077880859 C 5.932090759277344 48.0030403137207 8.13153076171875 51.26504135131836 10.9332389831543 54.0667610168457 C 13.73495864868164 56.86846923828125 16.9969596862793 59.06790924072266 20.62863922119141 60.60398101806641 C 24.38753890991211 62.1938591003418 28.38164901733398 63 32.5 63 C 36.61834716796875 63 40.61245727539062 62.1938591003418 44.37136077880859 60.60398101806641 C 48.0030403137207 59.06790924072266 51.26504135131836 56.86846923828125 54.0667610168457 54.0667610168457 C 56.86846923828125 51.26504135131836 59.06790924072266 48.0030403137207 60.60398101806641 44.37136077880859 C 62.1938591003418 40.61245727539062 63 36.61834716796875 63 32.5 C 63 28.38164901733398 62.1938591003418 24.38753890991211 60.60398101806641 20.62863922119141 C 59.06790924072266 16.9969596862793 56.86846923828125 13.73495864868164 54.0667610168457 10.9332389831543 C 51.26504135131836 8.13153076171875 48.0030403137207 5.932090759277344 44.37136077880859 4.396018981933594 C 40.61245727539062 2.806140899658203 36.61834716796875 2 32.5 2 M 32.5 0 C 50.44924926757812 0 65 14.55075073242188 65 32.5 C 65 50.44924926757812 50.44924926757812 65 32.5 65 C 14.55075073242188 65 0 50.44924926757812 0 32.5 C 0 14.55075073242188 14.55075073242188 0 32.5 0 Z" stroke="none" fill="rgba(174,174,174,0.29)"/>
        </g>
      </g>
    </g>
    <g id="Group_402" data-name="Group 402" transform="translate(-19398 -9406)">
      <path id="Path_1779" data-name="Path 1779" d="M8312,929l8.5,10.623-8.5,10.623" transform="translate(-7392.5 998.5)" fill="none" stroke="#343434" stroke-width="2"/>
      <path id="Path_1780" data-name="Path 1780" d="M-4535,16420.539h36" transform="translate(5427 -14482.039)" fill="none" stroke="#343434" stroke-width="2"/>
    </g>
  </g>
</svg>
