<svg xmlns="http://www.w3.org/2000/svg" xmlns:xlink="http://www.w3.org/1999/xlink" width="44" height="38" viewBox="0 0 44 38"><defs><style>.a{fill:#fff;stroke:#707070;}.b,.c,.e,.h{fill:none;}.b{opacity:0.42;}.c{stroke:#343434;}.d{clip-path:url(#a);}.e{stroke:#4b81ff;stroke-width:2px;}.f,.g{stroke:none;}.g{fill:rgba(174,174,174,0.29);}</style><clipPath id="a"><rect class="a" width="29" height="23" transform="translate(0.495 0.198)"/></clipPath></defs><g transform="translate(-885 -1883.198)"><g transform="translate(885 1883)"><g class="b" transform="translate(0 6.769)"><path class="f" d="M15.714,0A15.714,15.714,0,1,1,0,15.714,15.714,15.714,0,0,1,15.714,0Z"/><path class="g" d="M 15.7142858505249 1.999996185302734 C 12.05106544494629 1.999996185302734 8.607105255126953 3.426536560058594 6.016815185546875 6.016815185546875 C 3.426536560058594 8.607105255126953 1.999996185302734 12.05106544494629 1.999996185302734 15.7142858505249 C 1.999996185302734 19.37750625610352 3.426536560058594 22.82146453857422 6.016815185546875 25.41175651550293 C 8.607105255126953 28.00203514099121 12.05106544494629 29.42857551574707 15.7142858505249 29.42857551574707 C 19.37750625610352 29.42857551574707 22.82146453857422 28.00203514099121 25.41175651550293 25.41175651550293 C 28.00203514099121 22.82146453857422 29.42857551574707 19.37750625610352 29.42857551574707 15.7142858505249 C 29.42857551574707 12.05106544494629 28.00203514099121 8.607105255126953 25.41175651550293 6.016815185546875 C 22.82146453857422 3.426536560058594 19.37750625610352 1.999996185302734 15.7142858505249 1.999996185302734 M 15.7142858505249 -3.814697265625e-06 C 24.39304542541504 -3.814697265625e-06 31.42857551574707 7.035526275634766 31.42857551574707 15.7142858505249 C 31.42857551574707 24.39304542541504 24.39304542541504 31.42857551574707 15.7142858505249 31.42857551574707 C 7.035526275634766 31.42857551574707 -3.814697265625e-06 24.39304542541504 -3.814697265625e-06 15.7142858505249 C -3.814697265625e-06 7.035526275634766 7.035526275634766 -3.814697265625e-06 15.7142858505249 -3.814697265625e-06 Z"/></g><path class="c" d="M8312,929l4.11,5.136-4.11,5.136" transform="translate(-8291.934 -911.352)"/><path class="c" d="M-4535,16420.539h17.407" transform="translate(4541.769 -16397.572)"/><g class="d" transform="translate(14.505)"><g class="e" transform="translate(-14.505 7.198)"><circle class="f" cx="15.5" cy="15.5" r="15.5"/><circle class="h" cx="15.5" cy="15.5" r="14.5"/></g></g></g></g></svg>