<svg xmlns="http://www.w3.org/2000/svg" width="246" height="80" viewBox="0 0 246 80">
    <defs>
        <style>
            .cls-1{opacity:.72}.cls-2{fill:none}.cls-3{fill:#343434}
        </style>
    </defs>
    <g id="Group_366" class="cls-1" data-name="Group 366" transform="translate(-281 -4782)">
        <path id="Rectangle_305" d="M0 0h246v80H0z" class="cls-2" data-name="Rectangle 305" transform="translate(281 4782)"/>
        <g id="Group_306" data-name="Group 306" transform="translate(-468.16 3933.062)">
            <path id="Path_118" d="M773.161 887.906v-19.848c.019-.02.031-.035.045-.047s.029-.03.046-.033a1.686 1.686 0 0 1 .281-.04q9.641 0 19.281.006a.568.568 0 0 1 .158.046c.123.417.16 19.159.035 19.916z" class="cls-3" data-name="Path 118"/>
            <path id="Path_119" d="M840.8 878.108v-9.127-.459a.311.311 0 0 1 .344-.36c.134 0 .268-.007.4-.007h18.369c.777 0 .778 0 .778.8v18.369c0 .755 0 .756-.748.756h-18.424c-.115 0-.23-.006-.344 0-.269.012-.385-.119-.375-.382.006-.153 0-.306 0-.459z" class="cls-3" data-name="Path 119" transform="translate(-45.486 -.146)"/>
            <path id="Path_120" d="M773.161 956.116v-19.848c.019-.02.031-.035.045-.047s.029-.03.046-.033a1.681 1.681 0 0 1 .281-.04q9.641 0 19.281.006a.576.576 0 0 1 .158.046c.123.417.16 19.159.035 19.916z" class="cls-3" data-name="Path 120" transform="translate(0 -45.871)"/>
            <path id="Path_121" d="M840.8 946.319v-9.127-.459a.311.311 0 0 1 .344-.36c.134 0 .268-.007.4-.007h18.369c.777 0 .778 0 .778.8v18.369c0 .755 0 .756-.748.756h-18.424c-.115 0-.23-.005-.344 0-.269.011-.385-.119-.375-.382.006-.153 0-.306 0-.459z" class="cls-3" data-name="Path 121" transform="translate(-45.486 -46.017)"/>
            <path id="Path_122" d="M954.433 912.545c.108-.239.223-.476.322-.719q3.531-8.654 7.059-17.311l.149-.373a.393.393 0 0 1 .394-.271q2.7.01 5.4.016c.034 0 .068.03.1.047a.411.411 0 0 1 .042.039.118.118 0 0 1 .027.049 1.223 1.223 0 0 1 .035.224v24.4a1.151 1.151 0 0 1-.026.227.657.657 0 0 1-.08.138h-4.028c-.016-.251-.046-.491-.046-.73v-15.212-2.813c0-.2-.029-.4-.048-.633-.364.077-.376.342-.453.531-.622 1.543-1.232 3.089-1.845 4.635l-5.412 13.646c-.264.665-.187.614-.9.617h-1.722c-.613 0-.616 0-.837-.551l-3-7.446q-2.2-5.452-4.392-10.9c-.074-.185-.18-.357-.322-.637a1.786 1.786 0 0 0-.174.39 5.407 5.407 0 0 0-.01.573v18.451a17.1 17.1 0 0 1-3.909.025c-.01-.17-.029-.356-.029-.541v-23.881-.172c.014-.453.035-.482.5-.485 1.186-.006 2.373 0 3.559 0h1.55c.535 0 .539 0 .742.516q1.195 3.011 2.385 6.025l4.6 11.624c.067.17.15.335.225.5z" class="cls-3" data-name="Path 122" transform="translate(-112.679 -17.439)"/>
            <path id="Path_123" d="M1327.02 900.695c-.012.241-.028.429-.029.617 0 2.622-.007 5.243.006 7.865a7.443 7.443 0 0 0 .141 1.423 2.136 2.136 0 0 0 2.62 1.718 9.233 9.233 0 0 0 1.526-.415.776.776 0 0 1 .057.215c.005.861-.008 1.722.01 2.583a.526.526 0 0 1-.424.584 8.056 8.056 0 0 1-4.847.164 4.206 4.206 0 0 1-3.021-3.556 11.005 11.005 0 0 1-.156-1.939c-.016-2.813-.006-5.626-.008-8.439 0-.9 0-.9-.88-.9h-4.88c-.244 0-.487.031-.784.052-.016.283-.042.523-.042.764v13.809h-4.124c-.014-.223-.041-.443-.041-.664v-13.89c-.991-.169-1.949-.005-2.872-.109a12.6 12.6 0 0 1-.045-3.212c.921-.133 1.878.041 2.868-.1.018-.25.039-.471.048-.693.039-1.031.005-2.07.124-3.091a5.952 5.952 0 0 1 5.142-5.117 10.345 10.345 0 0 1 2.853.022c.15.021.3.074.445.108a.373.373 0 0 1 .322.407c-.006.995-.008 1.99-.015 2.984 0 .031-.036.062-.072.12-.357-.089-.719-.2-1.089-.27a2.677 2.677 0 0 0-3.51 2.638c-.07.836-.031 1.683-.024 2.525 0 .357.069.41.462.42.516.014 1.033.005 1.55.005h3.9c.609 0 .657-.046.662-.649.009-.976 0-1.952.005-2.928 0-.583.008-.586.564-.756q1.562-.475 3.126-.943c.1-.031.215-.042.4-.077v4.561c0 .153 0 .306.01.459a.31.31 0 0 0 .331.319c.153.008.306.01.459.01h3.51c.087 1.085.03 2.124.04 3.226-.241.024-.441.059-.642.06-.995.006-1.99 0-2.985.007a6.809 6.809 0 0 0-.691.083z" class="cls-3" data-name="Path 123" transform="translate(-360.443 -13.678)"/>
            <path id="Path_124" d="M1269.387 923.717a11.706 11.706 0 0 1-.868 4.377 8.2 8.2 0 0 1-6.1 4.983 11.027 11.027 0 0 1-5.5-.144 7.826 7.826 0 0 1-5.729-5.922 11.634 11.634 0 0 1 .377-7.158 8 8 0 0 1 6.2-5.148 11.72 11.72 0 0 1 5.393.076 7.634 7.634 0 0 1 5.863 6.159c.211.907.249 1.851.364 2.777zm-14.261.1a7.957 7.957 0 0 0 .377 2.835 4.464 4.464 0 0 0 2.908 3.013 5.891 5.891 0 0 0 1.118.226c2.406.283 4.418-.748 5.128-3.115a9.866 9.866 0 0 0 .149-5.205 4.41 4.41 0 0 0-3.942-3.683 4.681 4.681 0 0 0-5.1 2.651 7.476 7.476 0 0 0-.638 3.274z" class="cls-3" data-name="Path 124" transform="translate(-321.212 -31.264)"/>
            <path id="Path_125" d="M1145.064 924.083a13.52 13.52 0 0 1 .665-3.9 8.1 8.1 0 0 1 6.32-5.474 11.774 11.774 0 0 1 5.449.083 7.467 7.467 0 0 1 5.556 5.2 11.61 11.61 0 0 1-.149 7.819 8.087 8.087 0 0 1-6.183 5.26 11.117 11.117 0 0 1-5.222-.071 7.881 7.881 0 0 1-6.069-6.2 26.368 26.368 0 0 1-.367-2.717zm14.238-.154c0-.4.013-.8 0-1.2a5.62 5.62 0 0 0-.107-.736 4.593 4.593 0 0 0-3.952-4.092 4.684 4.684 0 0 0-5.4 3.2 10.009 10.009 0 0 0-.407 2.071 7.933 7.933 0 0 0 .493 3.826 4.366 4.366 0 0 0 3.237 2.8 6.02 6.02 0 0 0 2.158.082 4.12 4.12 0 0 0 3.524-2.8 7.564 7.564 0 0 0 .452-3.151z" class="cls-3" data-name="Path 125" transform="translate(-250.102 -31.265)"/>
            <path id="Path_126" d="M1219.357 918.831c-.894-.321-1.7-.66-2.538-.9a4.939 4.939 0 0 0-2.717-.062 1.837 1.837 0 0 0-1.425 2.309 1.668 1.668 0 0 0 .865 1.16c.727.379 1.483.7 2.215 1.073.834.421 1.688.816 2.477 1.311a4.262 4.262 0 0 1 1.9 2.505 5.161 5.161 0 0 1-2.467 6.088 8.233 8.233 0 0 1-3.04.945 12.408 12.408 0 0 1-5.361-.584 2.149 2.149 0 0 1-.53-.211.528.528 0 0 1-.252-.334c-.019-1.181-.012-2.363-.012-3.665.266.147.441.241.613.34a8.433 8.433 0 0 0 4.628 1.28 4.4 4.4 0 0 0 1.443-.309 1.742 1.742 0 0 0 .5-2.894 4.753 4.753 0 0 0-1.04-.7c-.593-.307-1.22-.548-1.819-.844a24.2 24.2 0 0 1-2.231-1.167 4.371 4.371 0 0 1-2.089-3.686 5.14 5.14 0 0 1 3.433-5.39 8.7 8.7 0 0 1 4.668-.514c.789.121 1.568.315 2.348.489.231.051.431.156.43.453-.002 1.105.001 2.212.001 3.307z" class="cls-3" data-name="Path 126" transform="translate(-292.741 -31.291)"/>
            <path id="Path_127" d="M1073 919.295a8.017 8.017 0 0 0-2.757-1.285 5.49 5.49 0 0 0-6.923 4.793 7.78 7.78 0 0 0 .268 3.57 4.908 4.908 0 0 0 4.256 3.505 7.028 7.028 0 0 0 4.538-1.051c.164-.091.324-.189.541-.316a2.723 2.723 0 0 1 .073.417c.005.918-.011 1.837.01 2.755a.673.673 0 0 1-.451.705 9 9 0 0 1-3.019.838 18 18 0 0 1-2 .1 8.329 8.329 0 0 1-8.39-7.1 11.351 11.351 0 0 1 .5-5.933 8.506 8.506 0 0 1 6.488-5.574 11.438 11.438 0 0 1 5.833.224c1.032.3 1.03.313 1.03 1.374v2.974z" class="cls-3" data-name="Path 127" transform="translate(-192.199 -31.276)"/>
            <path id="Path_128" d="M1122.525 919.078c-.623-.162-1.149-.328-1.686-.433a3.235 3.235 0 0 0-3.208 1.079 5.216 5.216 0 0 0-1.315 3.47c-.057 3.041-.053 6.083-.076 9.125 0 .245-.022.489-.032.716a19.744 19.744 0 0 1-3.968.055c-.126-.413-.148-17.237-.015-17.846a3.648 3.648 0 0 1 .427-.049q1.492-.007 2.985 0c.581 0 .6.021.6.63.006.632 0 1.263.007 1.894a4.555 4.555 0 0 0 .083.542 3.82 3.82 0 0 0 .276-.36c.168-.3.307-.618.49-.908a4.506 4.506 0 0 1 4.962-2.029c.238.049.464.1.465.4.008 1.223.005 2.445.005 3.714z" class="cls-3" data-name="Path 128" transform="translate(-227.958 -31.544)"/>
            <path id="Path_129" d="M1037.083 916.006h3.89c.133.44.165 17.186.044 17.829a20.806 20.806 0 0 1-3.915.031c-.142-.42-.175-17.166-.019-17.86z" class="cls-3" data-name="Path 129" transform="translate(-177.416 -32.325)"/>
            <path id="Path_130" d="M1040.727 894.656a2.358 2.358 0 0 1-2.5 2.356 2.4 2.4 0 1 1 .021-4.8 2.351 2.351 0 0 1 2.479 2.444z" class="cls-3" data-name="Path 130" transform="translate(-176.572 -16.322)"/>
        </g>
    </g>
</svg>
