<svg xmlns="http://www.w3.org/2000/svg" width="246" height="80" viewBox="0 0 246 80">
    <defs>
        <style>
            .cls-1{opacity:.72}.cls-2{fill:none}.cls-3{fill:#343434}
        </style>
    </defs>
    <g id="Group_367" class="cls-1" data-name="Group 367" transform="translate(-559 -4782)">
        <path id="Rectangle_305" d="M0 0h246v80H0z" class="cls-2" data-name="Rectangle 305" transform="translate(559 4782)"/>
        <g id="Group_269" data-name="Group 269" transform="translate(0 23)">
            <g id="Group_146" data-name="Group 146" transform="translate(1081.739 4676.309)">
                <path id="Path_66" d="M-473.739 122.437c3.882-6.618 7.747-13.243 11.677-19.83a2.137 2.137 0 0 1 1.553-.872q10.929-.085 21.858.011a2.535 2.535 0 0 1 1.819 1.093q5.4 9.253 10.605 18.619a2.8 2.8 0 0 1-.025 2.322q-5.17 9.266-10.557 18.411a2.732 2.732 0 0 1-1.967 1.152q-10.727.124-21.457 0a2.736 2.736 0 0 1-1.954-1.165c-3.894-6.534-7.698-13.122-11.552-19.741zm35.97-20.177l-23.652 13.6 5.9 16.871c.765-.077 1.365-.09 1.946-.2 4.456-.86 8.885-1.9 13.371-2.543 2.128-.307 2.505-1.2 2.48-3.1-.1-7.353-.039-14.708-.039-22.062z" class="cls-3" data-name="Path 66"/>
                <path id="Path_67" d="M-326.711 139.162c.106-3.866-1.145-4.382-8.466-3.429l-.55-3.329c3.515-1.016 6.947-1.535 10.332.1a5.15 5.15 0 0 1 2.908 4.722c.126 4.008.132 8.021.1 12.03 0 .452-.521 1.276-.829 1.29a65.373 65.373 0 0 1-10.116.144c-2.824-.313-4.149-2.557-4.168-5.533a5.343 5.343 0 0 1 4.272-5.545 17.491 17.491 0 0 1 3.162-.436c1.066-.07 2.13-.014 3.355-.014zm.14 6.188c0-2.389-.207-2.575-2.587-2.576-2.571 0-3.883.8-3.91 2.392-.028 1.68 1.168 2.428 3.8 2.429 1.668.005 3.18-.12 2.697-2.245z" class="cls-3" data-name="Path 67" transform="translate(-81.565 -17.819)"/>
                <path id="Path_68" d="M-204.718 132.4c3.2-.914 6.27-1.3 9.356-.306a5.2 5.2 0 0 1 3.835 4.9c.2 4.137.161 8.286.134 12.43 0 .412-.6 1.162-.954 1.178a63.819 63.819 0 0 1-9.918.132c-2.861-.322-4.185-2.5-4.231-5.48a5.34 5.34 0 0 1 4.21-5.594 16.607 16.607 0 0 1 3.36-.446c1.049-.052 2.107.072 3.157.119.3-3.968-1.485-4.709-8.411-3.507-.171-1.099-.344-2.194-.538-3.426zm9.1 12.839c.492-2.054-.722-2.445-2.432-2.441-2.673.007-4.049.826-4.023 2.487.025 1.6 1.186 2.34 3.685 2.337 1.588-.006 3.246.078 2.774-2.388z" class="cls-3" data-name="Path 68" transform="translate(-159.991 -17.848)"/>
                <path id="Path_69" d="M-256.385 132.812h4.923l4.415 13.015.651.049 3.767-12.983h4.38c-2.031 7.26-4.238 14.388-7.692 21.034-2.114 4.068-6.24 5.242-10.3 3.179l.623-2.975a17.144 17.144 0 0 0 4.2-.061c2.249-.61 2.825-2.521 1.92-4.643-2.293-5.376-4.483-10.795-6.887-16.615z" class="cls-3" data-name="Path 69" transform="translate(-130.124 -18.631)"/>
                <path id="Path_70" d="M-286.908 119.455l4.347-.848v5.6h6.629v3.551h-6.368c0 3.384-.1 6.556.038 9.719.077 1.783 1.4 2.516 3.08 2.4a31.187 31.187 0 0 0 3.371-.606l.666 3.166a10.4 10.4 0 0 1-6.912.9c-2.6-.486-4.242-2.024-4.471-4.689-.317-3.713-.3-7.456-.372-11.187-.049-2.601-.008-5.2-.008-8.006z" class="cls-3" data-name="Path 70" transform="translate(-111.841 -10.127)"/>
                <path id="Path_71" d="M-145.871 124.152v3.548h-6.39c0 3.448-.1 6.683.041 9.909.067 1.584 1.312 2.29 2.818 2.224a32.4 32.4 0 0 0 3.6-.571c.2.958.428 2.015.663 3.121a10.26 10.26 0 0 1-6.892.917c-2.614-.477-4.259-2.009-4.488-4.671-.32-3.712-.3-7.455-.376-11.187-.051-2.6-.01-5.2-.01-7.982l4.329-.915v5.6z" class="cls-3" data-name="Path 71" transform="translate(-189.669 -10.093)"/>
                <path id="Path_72" d="M-114.59 151.606h-4.1V132.9h4.1z" class="cls-3" data-name="Path 72" transform="translate(-212.56 -18.682)"/>
                <path id="Path_73" d="M-117.683 117.878a2.536 2.536 0 0 1-2.739-2.539 2.529 2.529 0 0 1 2.607-2.672 2.559 2.559 0 0 1 2.747 2.542 2.556 2.556 0 0 1-2.615 2.669z" class="cls-3" data-name="Path 73" transform="translate(-211.521 -6.571)"/>
            </g>
        </g>
    </g>
</svg>
