<svg xmlns="http://www.w3.org/2000/svg" width="246" height="80" viewBox="0 0 246 80">
    <defs>
        <style>
            .cls-1{opacity:.72}.cls-2{fill:none}.cls-3{fill:#343434}
        </style>
    </defs>
    <g id="Group_368" class="cls-1" data-name="Group 368" transform="translate(-837 -4782)">
        <path id="Rectangle_305" d="M0 0h246v80H0z" class="cls-2" data-name="Rectangle 305" transform="translate(837 4782)"/>
        <g id="Group_268" data-name="Group 268" transform="translate(0 23)">
            <g id="Group_147" data-name="Group 147" transform="translate(1332.447 4441.508)">
                <path id="Path_74" d="M-460.447 343.538c4.466 0 8.94-.051 13.41.06.6.015 1.29.75 1.763 1.3q7.262 8.467 14.463 16.986c.331.388.695.749 1.514 1.627v-5.346c0-4.262.043-8.525-.023-12.786-.022-1.4.421-1.952 1.862-1.883 2 .1 4 .024 6.17.024v26.765c-4.555 0-9.03.074-13.5-.075-.712-.024-1.5-.953-2.067-1.625-5.018-5.992-9.994-12.019-15.362-18.5V370.1h-8.231z" class="cls-3" data-name="Path 74"/>
                <path id="Path_75" d="M-347.655 370.943c-3.633 0-7.285.233-10.9-.053-5.825-.461-7.729-2.8-7.53-7.818.168-4.25 0-8.513.073-12.768.055-3.3 1.343-4.917 4.548-5.85a12.264 12.264 0 0 1 3.4-.628c7.644.037 15.3-.076 22.925.35 4.042.226 5.837 2.853 5.857 6.98.019 3.947.007 7.894 0 11.842 0 5.273-1.95 7.537-7.255 7.873-3.7.234-7.418.045-11.128.045zm-.241-6.471v-.012c2.71 0 5.421.034 8.13-.012 1.826-.031 2.845-.834 2.772-2.869-.1-2.861-.1-5.732 0-8.594.07-1.99-.857-2.917-2.714-2.932-5.265-.043-10.531-.038-15.8-.012-2.094.01-3.063 1.1-3.006 3.232.071 2.631-.018 5.266.027 7.9.043 2.571.754 3.252 3.387 3.292 2.4.035 4.8.007 7.2.007z" class="cls-3" data-name="Path 75" transform="translate(-50.453 -.179)"/>
                <path id="Path_76" d="M-171.277 371.1c1.934-3.333 3.662-6.32 5.4-9.3 3.07-5.278 6.183-10.531 9.189-15.845a2.767 2.767 0 0 1 2.868-1.723c2.627.128 5.268-.042 7.9.084a2.768 2.768 0 0 1 1.983 1.1c4.708 8.166 9.331 16.382 13.967 24.59a10.9 10.9 0 0 1 .438 1.087c-3.037 0-5.882.148-8.691-.1-.74-.065-1.628-1.245-2-2.106a3.594 3.594 0 0 0-4.017-2.537c-4.093.221-8.211.178-12.309.015-1.97-.079-3.289.416-3.919 2.323-.65 1.972-1.927 2.678-4.03 2.459-2.076-.218-4.183-.047-6.779-.047zm15.26-10.566h11.3l-5.832-9.866z" class="cls-3" data-name="Path 76" transform="translate(-154.627 -.39)"/>
                <path id="Path_77" d="M-249.7 357.139l17.951 13.975c-4.324 0-8.059.009-11.794-.019a1.437 1.437 0 0 1-.79-.416c-5.127-4.464-10.245-8.938-15.5-13.53 4.834-4.213 9.478-8.285 14.168-12.3a2.844 2.844 0 0 1 1.7-.514c3.17-.048 6.342-.023 10.2-.023z" class="cls-3" data-name="Path 77" transform="translate(-107.273 -.433)"/>
                <path id="Path_78" d="M-270.391 371.208h-8.193v-26.574h8.193z" class="cls-3" data-name="Path 78" transform="translate(-97.247 -.611)"/>
                <path id="Path_79" d="M-185.252 371.168h-8.168V344.6h8.168z" class="cls-3" data-name="Path 79" transform="translate(-142.787 -.59)"/>
            </g>
        </g>
    </g>
</svg>
