<svg xmlns="http://www.w3.org/2000/svg" width="246" height="80" viewBox="0 0 246 80">
    <defs>
        <style>
            .cls-1{opacity:.72}.cls-2{fill:none}.cls-3{fill:#343434}
        </style>
    </defs>
    <g id="Group_392" class="cls-1" data-name="Group 392" transform="translate(-1115 -4782)">
        <path id="Rectangle_333" d="M0 0h246v80H0z" class="cls-2" data-name="Rectangle 333" transform="translate(1115 4782)"/>
        <g id="Layer_2" data-name="Layer 2" transform="translate(1119.031 4806)">
            <g id="Layer_1" data-name="Layer 1" transform="translate(-.031 .001)">
                <path id="Path_1811" d="M1386.414 36.787c-.382.029-.685.073-.99.073-3.379.006-6.757-.034-10.135.034-.939.019-1.111-.518-1.337-1.169q-2.624-7.681-5.258-15.358c-.127-.367-.286-.722-.52-1.307L1362.1 36.8h-11.96c.438-1.2.822-2.282 1.229-3.356q4.989-13.215 9.969-26.434a1.166 1.166 0 0 1 1.311-.9c3.7.036 7.4.025 11.1.01.538 0 .93.057 1.159.651q5.714 14.814 11.458 29.616a2.455 2.455 0 0 1 .048.4z" class="cls-3" data-name="Path 1811" transform="translate(-1264.196 -5.728)"/>
                <path id="Path_1812" d="M413.3 36.6c1.19-3.17 2.276-6.081 3.374-8.987 2.593-6.852 5.211-13.7 7.771-20.56a1.558 1.558 0 0 1 1.766-1.209c3.415.067 6.831.081 10.241-.005a1.7 1.7 0 0 1 1.918 1.312c2.3 6.055 4.664 12.089 7.006 18.13q1.96 5.049 3.916 10.1c.132.344.209.709.358 1.221h-1.535c-3.165 0-6.33-.032-9.495.015a1.186 1.186 0 0 1-1.358-.955c-1.822-5.36-3.685-10.707-5.538-16.057-.069-.2-.15-.393-.315-.824-.779 2.251-1.5 4.294-2.193 6.346q-1.768 5.228-3.5 10.467a1.291 1.291 0 0 1-1.455 1.035c-3.235-.057-6.472-.024-9.708-.025z" class="cls-3" data-name="Path 1812" transform="translate(-386.99 -5.467)"/>
                <path id="Path_1813" d="M947.087 16.9h-8.507V7.8h29.413v9.052h-8.316v1.261c0 6.365-.022 12.731.022 19.1.006.985-.272 1.28-1.254 1.264-3.306-.057-6.613-.027-9.92-.03-1.378 0-1.389 0-1.388-1.417q0-9.6.011-19.2c-.001-.284-.035-.558-.061-.93z" class="cls-3" data-name="Path 1813" transform="translate(-878.834 -7.304)"/>
                <path id="Path_1814" d="M8.767 15.352c-2.669 0-5.192-.027-7.714.016-.811.011-1.113-.16-1.083-1.06.087-2.416.064-4.838.053-7.257 0-.6.127-.891.823-.891q14.195.033 28.385.024a2.382 2.382 0 0 1 .335.069v9.072h-8.345v1.253c0 6.365-.018 12.735.018 19.1.005.968-.255 1.277-1.257 1.257q-5.067-.1-10.137-.008c-.918.015-1.109-.27-1.1-1.146.041-6.26.024-12.521.026-18.778z" class="cls-3" data-name="Path 1814" transform="translate(.031 -5.768)"/>
                <path id="Path_1815" d="M2843.5 17.73c1.766-3.463 3.5-6.831 5.192-10.225a1.284 1.284 0 0 1 1.386-.833c1.795.056 3.592.018 5.594.018-.276.516-.439.852-.629 1.173-2.6 4.355-5.185 8.714-7.808 13.049a1.108 1.108 0 0 0 .008 1.337q4.1 6.849 8.157 13.722c.191.322.363.655.654 1.183-2.248 0-4.289.024-6.328-.032-.238-.006-.532-.412-.686-.694-1.942-3.539-3.863-7.089-5.835-10.722-1.062 2.1-2.092 4.122-3.11 6.153-.747 1.491-1.495 2.981-2.2 4.491a1.2 1.2 0 0 1-1.286.824c-1.807-.053-3.618-.018-5.634-.018a10.727 10.727 0 0 1 .443-.985c2.635-4.5 5.265-9 7.931-13.477a1.654 1.654 0 0 0-.028-1.928c-2.516-4.278-4.985-8.584-7.465-12.884-.174-.3-.319-.621-.546-1.078a9.672 9.672 0 0 1 .993-.127c1.458-.015 2.919.046 4.372-.036a1.524 1.524 0 0 1 1.643 1c1.6 3.2 3.232 6.38 4.857 9.565.084.16.188.3.325.524z" class="cls-3" data-name="Path 1815" transform="translate(-2650.775 -6.215)"/>
                <path id="Path_1816" d="M2174.47 34.242v4.684h-18.36V8.57h17.734c0 1.451.044 2.83-.047 4.2-.014.208-.653.533-1.006.537-3.129.036-6.259.012-9.388.006h-1.55v7.563h9.948c1.4 0 1.4 0 1.39 1.369-.007 1.057 0 2.113 0 3.288h-11.336v8.708z" class="cls-3" data-name="Path 1816" transform="translate(-2018.863 -8.025)"/>
                <path id="Path_1817" d="M3266.318 24.716c3 1.451 5.916 2.292 9.1 1.756a4.073 4.073 0 0 0 3.607-2.988 3.73 3.73 0 0 0-2.164-4.32c-1.486-.809-3.132-1.321-4.627-2.115a27.532 27.532 0 0 1-4.2-2.645c-3.644-2.887-3.353-9.577 1.281-12.53a12.837 12.837 0 0 1 7.3-1.87 14.877 14.877 0 0 1 7.17 1.6l-1.372 4.449c-1.375-.392-2.665-.849-3.993-1.118-2.028-.412-4.055-.416-5.806.919a2.98 2.98 0 0 0-.1 4.85 26.664 26.664 0 0 0 4.874 2.521c2.4 1.047 4.73 2.158 6.267 4.4a8.729 8.729 0 0 1-3.042 12.193 15.885 15.885 0 0 1-10.248 1.353 38.141 38.141 0 0 1-4.486-1.219c-.668-.191-.873-.573-.647-1.284.404-1.268.713-2.568 1.086-3.952z" class="cls-3" data-name="Path 1817" transform="translate(-3057.304 -.001)"/>
                <path id="Path_1818" d="M2523.278 32.536c3.416 0 6.648.006 9.879 0 2.54-.006 2.54-.013 2.541 2.478v2.369c-.435.024-.745.056-1.055.056-5.369 0-10.739-.017-16.1.018-.8.005-1.041-.224-1.039-1.018q.038-14.24.01-28.481c0-.791.233-1.067 1.04-1.018a30.185 30.185 0 0 0 3.624.009c.909-.058 1.135.255 1.131 1.136-.034 7.36-.021 14.721-.023 22.081z" class="cls-3" data-name="Path 1818" transform="translate(-2357.249 -6.493)"/>
                <path id="Path_1819" d="M3656.615 7.169v30.473c-1.778 0-3.508.025-5.234-.039-.172-.006-.462-.545-.466-.84-.039-2.132-.016-4.265-.016-6.4 0-7.358.012-14.715-.02-22.073 0-.857.185-1.193 1.11-1.146 1.511.083 3.035.025 4.626.025z" class="cls-3" data-name="Path 1819" transform="translate(-3418.485 -6.688)"/>
            </g>
        </g>
    </g>
</svg>
