<svg xmlns="http://www.w3.org/2000/svg" width="246" height="80" viewBox="0 0 246 80">
    <defs>
        <style>
            .cls-1{opacity:.72}.cls-2{fill:none}.cls-3{fill:#343434}
        </style>
    </defs>
    <g id="Group_365" class="cls-1" data-name="Group 365" transform="translate(-281 -4977)">
        <path id="Rectangle_305" d="M0 0h246v80H0z" class="cls-2" data-name="Rectangle 305" transform="translate(281 4977)"/>
        <g id="Layer_2" data-name="Layer 2" transform="translate(359.153 4981)">
            <g id="Layer_1" data-name="Layer 1" transform="translate(-.014)">
                <path id="Path_1729" d="M145.39 27.665a5.292 5.292 0 0 1 .394-1.038q3.75-5.669 7.535-11.32c.391-.585.637-1.077-.183-1.581a18.025 18.025 0 0 1-1.992-1.7 30.493 30.493 0 0 1 3.137-.8A3.742 3.742 0 0 0 157 9.394c1.9-2.833 3.917-5.6 5.88-8.392.2-.288.422-.563.761-1 .782 1.6 1.5 3.047 2.2 4.5.569 1.172 1.086 2.374 1.717 3.51a1.3 1.3 0 0 0 1.016.569c3.332-.378 6.651-.837 9.984-1.24a5.862 5.862 0 0 1 1.358.183c-2.1 4.255-4.082 8.32-6.111 12.366a1.823 1.823 0 0 0 0 1.9c1.038 1.9 2 3.842 3.046 5.882z" class="cls-3" data-name="Path 1729" transform="translate(-118.713)"/>
                <path id="Path_1730" d="M289.225 177.432H283.7c0 1.611.033 3.179 0 4.748-.039 1.424-.158 2.846-.24 4.267l-4.275.213c-.231.011-.462-.015-.692 0-.818.072-1.1-.33-1.1-1.11q.013-10.9 0-21.805c0-.69.183-1.037.939-1.022 1.512.029 3.025.018 4.537-.013.754-.015.853.424.851 1.016-.009 2.236 0 4.473 0 6.709v1.147h5.508v-7.92c0-.662.2-1 .991-.96 1.442.077 2.893.059 4.339.009.734-.024 1 .222.994.954q-.024 10.949 0 21.9c0 .811-.328 1.115-1.121 1.1-1.315-.033-2.635-.064-3.946.009-1 .055-1.264-.426-1.26-1.284.009-2.367 0-4.735 0-7.1z" class="cls-3" data-name="Path 1730" transform="translate(-226.495 -132.849)"/>
                <path id="Path_1731" d="M170.048 176.9c-.835 0-1.62-.033-2.4.009-.708.037-1.066-.275-1.079-.952q-.036-1.775 0-3.552a.934.934 0 0 1 1.053-1.009h7.706c.481 0 .949.077.917.734-.114 2.317-.1 4.649-.38 6.946a7.241 7.241 0 0 1-4.3 5.6c-3.939 2.018-9.478 1.284-12.32-2.877a9.838 9.838 0 0 1-1.354-4.431 28.817 28.817 0 0 1 .25-9.4 7.63 7.63 0 0 1 5.765-6.091c3.7-.987 7.284-.7 10.1 2.407a10.4 10.4 0 0 1 2.2 4.5c.16.605-.11.993-.84.98-1.446-.029-2.893-.013-4.341 0a1.045 1.045 0 0 1-1.158-.8 3.032 3.032 0 0 0-3.291-1.888 2.528 2.528 0 0 0-2.359 2.752 218.148 218.148 0 0 0 0 7.843 2.272 2.272 0 0 0 1.776 2.181c1.752.508 4.093-.235 4.055-2.952z" class="cls-3" data-name="Path 1731" transform="translate(-128.693 -131.77)"/>
                <path id="Path_1732" d="M390.51 168.414c0-1.748-.037-3.352.039-4.954.011-.25.532-.679.82-.679 5.354-.029 10.707 0 16.061 0 .706 0 1.022.224 1 .965a70.846 70.846 0 0 0 0 3.745c.015.679-.266.938-.937.917-1.347-.026-2.7.05-4.036-.022-.791-.04-.917.253-.917.96.028 5.19.017 10.382.017 15.573 0 1.787 0 1.787-1.736 1.787h-3.071c-1.382 0-1.382 0-1.382-1.433 0-5.256-.02-10.513.018-15.769 0-.857-.209-1.156-1.1-1.115-1.486.075-3 .025-4.776.025z" class="cls-3" data-name="Path 1732" transform="translate(-318.854 -132.906)"/>
                <path id="Path_1733" d="M10.21 171.954c0 2.7.026 5.39-.017 8.084-.011.794.257 1.013 1.029 1 2.627-.04 5.258 0 7.889-.029.734-.011.991.242.971.96a79.827 79.827 0 0 0 0 3.853c.02.734-.279.954-1 .95q-7-.035-14 0c-.734 0-1.049-.207-1.048-1.011q.039-10.946 0-21.888c0-.859.306-1.079 1.1-1.053 1.378.048 2.761.057 4.139 0 .754-.031.956.248.949.96-.03 2.72-.012 5.446-.012 8.174z" class="cls-3" data-name="Path 1733" transform="translate(-3.296 -132.945)"/>
                <path id="Path_1734" d="M112.518 174.614q0 5.369.009 10.737c0 .822-.172 1.284-1.158 1.218-1.341-.086-2.691-.039-4.036-.015-.706.011-1.013-.294-1.013-1q.011-11.032 0-22.066c0-.721.347-.9.963-.9 1.468 0 2.952.015 4.427-.022.864-.022.815.55.815 1.112z" class="cls-3" data-name="Path 1734" transform="translate(-86.811 -132.741)"/>
                <path id="Path_1735" d="M7.03 309.16c1.627-3.7 3.185-7.293 4.809-10.854a1.931 1.931 0 0 1 1.123-.835c.55-.169.822.2.822.783q-.013 7.3 0 14.595c0 .611-.257.789-.827.805-.627.017-.8-.277-.794-.837.011-3.288 0-6.574.013-9.861a2.128 2.128 0 0 0-.183-1.027c-.459.993-.917 1.983-1.372 2.98q-1.284 2.838-2.536 5.688c-.218.5-.4.9-1.1.886s-.881-.367-1.1-.884c-1.306-2.893-2.625-5.772-4.058-8.906-.042.516-.081.78-.081 1.044v9.86c0 .622-.022 1.075-.87 1.062-.809-.011-.884-.459-.884-1.071 0-4.7-.015-9.4.026-14.1a1.293 1.293 0 0 1 .633-1 .98.98 0 0 1 1.33.622c1.502 3.41 3.067 6.79 4.619 10.19.113.249.245.493.43.86z" class="cls-3" data-name="Path 1735" transform="translate(.014 -242.845)"/>
                <path id="Path_1736" d="M242.926 306.519c1.218 2.385 2.385 4.658 3.592 7.012-1.2.349-1.835.183-2.3-.8-.848-1.794-1.835-3.521-2.734-5.295a1.291 1.291 0 0 0-1.416-.86c-.917.079-1.835.018-2.91.018v6.206c0 .631-.257.945-.954.917-.6-.018-.827-.253-.826-.826V298.4c0-.64.277-.917.965-.9 1.939.039 3.882-.04 5.82.031a4.274 4.274 0 0 1 4.11 4.053 4.5 4.5 0 0 1-3.347 4.935zm-5.717-1.706c1.677 0 3.3.022 4.926 0a2.592 2.592 0 0 0 2.514-2.057c.209-1.811-.506-3.213-1.991-3.409-1.791-.237-3.616-.22-5.449-.314z" class="cls-3" data-name="Path 1736" transform="translate(-192.193 -242.916)"/>
                <path id="Path_1737" d="M107.437 304.757c.171 1.594.171 1.6-1.2 1.6h-5.774c0 1.818-.02 3.579.039 5.339 0 .134.55.354.849.358q3.3.048 6.6.009c.655 0 1.071.209.917.9-.064.273-.44.67-.681.673-2.858.048-5.719.022-8.577.039-.8 0-.774-.534-.776-1.068v-7.2c0-2.268.018-4.535 0-6.8 0-.8.2-1.174 1.114-1.152 2.629.057 5.258.027 7.889.015.622 0 1.1.033 1.088.864s-.561.734-1.081.734c-2.136 0-4.273.04-6.407-.02-.822-.024-1.016.259-.982 1.016a40.325 40.325 0 0 1 0 3.647c-.037.793.183 1.1 1.031 1.07 1.955-.068 3.924-.024 5.951-.024z" class="cls-3" data-name="Path 1737" transform="translate(-80.703 -242.873)"/>
                <path id="Path_1738" d="M423.954 297.112a5.066 5.066 0 0 1 3.686 1.356 1.209 1.209 0 0 1 .242 1.121c-.259.536-.714.453-1.215.088a5.108 5.108 0 0 0-5.179-.55 2.452 2.452 0 0 0-1.468 2.548 2.181 2.181 0 0 0 1.708 2.244c1.389.332 2.805.55 4.185.917a3.91 3.91 0 0 1 3.152 3.838 4.408 4.408 0 0 1-2.967 4.467 7.425 7.425 0 0 1-7.363-1.22c-.416-.345-.749-.649-.341-1.209.453-.622.927-.627 1.468-.1 1.541 1.5 3.46 1.391 5.341 1.1a2.909 2.909 0 0 0 2.266-2.935c-.1-1.387-1.191-2.249-2.906-2.523a15.922 15.922 0 0 1-3.939-.987c-2.156-.958-2.444-2.734-2.167-4.557a4.506 4.506 0 0 1 3.739-3.513c.586-.056 1.173-.057 1.758-.085z" class="cls-3" data-name="Path 1738" transform="translate(-341.479 -242.596)"/>
                <path id="Path_1739" d="M355.06 308.46c.251 1.7-1.183 3.853-3.033 4.634a5.652 5.652 0 0 1-7.469-2.906 8.576 8.576 0 0 1-.433-3.172c-.013-2 .086-4 .183-6 .072-1.369 2.018-3.423 3.752-3.763 3.09-.6 5.8.268 6.981 3.75.156.462.367 1-.3 1.227-.7.244-1.141-.15-1.347-.778a3.853 3.853 0 0 0-4.587-2.7 3.636 3.636 0 0 0-2.917 3.748q-.017 2.994 0 5.99a3.428 3.428 0 0 0 3.231 3.28c2.569.1 3.407-.411 4.335-2.73.319-.797.919-.657 1.604-.58z" class="cls-3" data-name="Path 1739" transform="translate(-280.986 -242.577)"/>
                <path id="Path_1740" d="M167.5 299.168v13.377c0 .541.239 1.222-.769 1.237-1.07.015-.826-.71-.827-1.284-.011-4.11-.022-8.218.009-12.325 0-.756-.169-1.081-.987-1.022-.982.072-1.972 0-2.958.024-.525.009-.805-.183-.785-.734.02-.532.183-.873.8-.87q4.733.017 9.467 0c.638 0 .772.383.785.881.013.532-.273.734-.807.734-1.278-.035-2.552-.018-3.928-.018z" class="cls-3" data-name="Path 1740" transform="translate(-131.61 -242.975)"/>
                <path id="Path_1741" d="M315.729 305.662c0 2.361-.015 4.724.011 7.085 0 .64-.138.958-.866.963s-.908-.378-.908-.961q-.011-7.137 0-14.272c0-.583.184-.993.917-1s.864.383.86 1c-.024 2.401-.014 4.786-.014 7.185z" class="cls-3" data-name="Path 1741" transform="translate(-256.356 -242.902)"/>
            </g>
        </g>
    </g>
</svg>
