<svg xmlns="http://www.w3.org/2000/svg" width="246" height="80" viewBox="0 0 246 80">
    <defs>
        <style>
            .cls-1,.cls-2{opacity:.72}.cls-2{fill:none}.cls-3{fill:#343434}
        </style>
    </defs>
    <g id="Group_391" class="cls-1" data-name="Group 391" transform="translate(-559 -4974)">
        <path id="Rectangle_332" d="M0 0h246v80H0z" class="cls-2" data-name="Rectangle 332" transform="translate(559 4974)"/>
        <g id="Group_390" data-name="Group 390" transform="translate(-3624.079 3975.81)">
            <path id="Path_1760" d="M-1966.206 283.535q0 19.695-.006 39.388 0 9.338-.007 18.679a1.285 1.285 0 0 1-.067.484c-.059-.125-.124-.25-.18-.377q-2.884-6.664-5.767-13.336l-19.149-44.472a6.984 6.984 0 0 0-.178-.372z" class="cls-3" data-name="Path 1760" transform="translate(6271.638 725.65)"/>
            <path id="Path_1761" d="M-2346.384 283.57l-1.427 3.438-22.513 54.1a6.747 6.747 0 0 1-.483.981c-.007-.1-.014-.2-.018-.3v-.124q0-8.884-.01-17.768 0-4.679-.017-9.359-.011-4.306-.028-8.615-.012-3.83-.021-7.661-.014-3.354-.036-6.709a3.962 3.962 0 0 0-.051-.446v-7.54z" class="cls-3" data-name="Path 1761" transform="translate(6607.82 725.615)"/>
            <path id="Path_1762" d="M-2153.9 480.8l15.95 36.324h-10.423c-.08-.19-.16-.378-.238-.57q-2.193-5.3-4.386-10.591c-.073-.179-.148-.357-.211-.539a.278.278 0 0 0-.312-.209c-.114.006-.221 0-.332 0h-10.626z" class="cls-3" data-name="Path 1762" transform="translate(6424.848 550.865)"/>
            <path id="Path_1763" d="M-1714.33 460.586h-3.934l-.935-4.331h-4.922q-.456 2.152-.912 4.324H-1729l5.444-23.3h3.761c.141.271 5.408 22.667 5.465 23.307zm-7.295-16.793l-.083.007c-.549 2.8-1.1 5.607-1.653 8.435h3.394a1265.34 1265.34 0 0 0-1.655-8.441z" class="cls-3" data-name="Path 1763" transform="translate(6039.004 589.425)"/>
            <path id="Path_1764" d="M-1346.933 437.39h3.5v7.491l.071.017a1.263 1.263 0 0 0 .114-.147 3.227 3.227 0 0 1 3.533-1.563 4.035 4.035 0 0 1 2.874 1.972 8.568 8.568 0 0 1 1.083 2.891 22.571 22.571 0 0 1 .3 6.018 14.217 14.217 0 0 1-.627 3.5 7.036 7.036 0 0 1-1.037 2.106 3.966 3.966 0 0 1-3.967 1.6 2.381 2.381 0 0 1-1.628-.976 13.961 13.961 0 0 1-.744-1.238.9.9 0 0 0-.253-.334l-.114 1.938h-3.067a.167.167 0 0 1-.024-.019.076.076 0 0 1-.022-.033.5.5 0 0 1-.023-.121V437.58a1.589 1.589 0 0 1 .031-.19zm3.343 14.949c.016.4.017.936.063 1.471a8.235 8.235 0 0 0 .558 2.7 3.473 3.473 0 0 0 .588.938 1.445 1.445 0 0 0 1.066.484 1.445 1.445 0 0 0 1.074-.464 2.81 2.81 0 0 0 .577-.895 8.133 8.133 0 0 0 .422-1.509 18.234 18.234 0 0 0 .151-4.5 7.525 7.525 0 0 0-.552-2.577 3.7 3.7 0 0 0-.557-.912 1.426 1.426 0 0 0-2.24 0 2.088 2.088 0 0 0-.351.508 7.517 7.517 0 0 0-.418 1.077 14.193 14.193 0 0 0-.381 3.679z" class="cls-3" data-name="Path 1764" transform="translate(5700.509 589.327)"/>
            <path id="Path_1765" d="M-1587.4 444.795v-7.375h3.451c.091.328.1 22.87.009 23.28h-3.077c-.04-.66-.08-1.312-.114-1.965l-.074-.016c-.043.074-.09.147-.129.228-.124.245-.228.5-.372.739a3.283 3.283 0 0 1-4.7 1.148 4.5 4.5 0 0 1-1.579-1.665 9.061 9.061 0 0 1-1.053-2.9 20.571 20.571 0 0 1 .114-8.627 7.74 7.74 0 0 1 1.06-2.549 3.978 3.978 0 0 1 2.757-1.869 3.2 3.2 0 0 1 3.258 1.149c.124.157.26.305.39.456zm-4.421 7.449c.041.7.064 1.405.13 2.105a7.843 7.843 0 0 0 .483 2.172 2.792 2.792 0 0 0 .659 1.041 1.463 1.463 0 0 0 2.052.008 2.141 2.141 0 0 0 .506-.7 8.546 8.546 0 0 0 .5-1.57 17.773 17.773 0 0 0 .148-5.073 7.646 7.646 0 0 0-.468-2.093 3.1 3.1 0 0 0-.64-1.055 1.421 1.421 0 0 0-2.13-.009 3.047 3.047 0 0 0-.529.783 5.412 5.412 0 0 0-.352 1.013 15.31 15.31 0 0 0-.36 3.377z" class="cls-3" data-name="Path 1765" transform="translate(5920.67 589.3)"/>
            <path id="Path_1766" d="M-1218.1 498.033h-7.979c-.014.141-.033.247-.032.352a8.709 8.709 0 0 0 .254 2.131 4.325 4.325 0 0 0 .243.7 1.941 1.941 0 0 0 2.352 1.222 1.281 1.281 0 0 0 .957-.66 7.6 7.6 0 0 0 .406-.945 3.921 3.921 0 0 0 .114-.449h3.519a7.664 7.664 0 0 1-1.824 4.15 4.16 4.16 0 0 1-2.176 1.2 7.39 7.39 0 0 1-2.878.05 4.545 4.545 0 0 1-3.056-2.017 7.928 7.928 0 0 1-1.14-2.778 19.626 19.626 0 0 1-.362-5.68 12.823 12.823 0 0 1 .684-3.438 7.6 7.6 0 0 1 1.254-2.271 5.3 5.3 0 0 1 5.806-1.634 4.465 4.465 0 0 1 2.394 1.938 9.05 9.05 0 0 1 1.177 3.116 20.793 20.793 0 0 1 .287 5.013zm-3.564-2.868a9.82 9.82 0 0 0-.4-2.736 3.353 3.353 0 0 0-.22-.489 1.516 1.516 0 0 0-1.34-.83 1.827 1.827 0 0 0-1.731.928 5.128 5.128 0 0 0-.684 2.109 2.542 2.542 0 0 0-.039 1.026z" class="cls-3" data-name="Path 1766" transform="translate(5596.671 544.762)"/>
            <path id="Path_1767" d="M-1472.512 496.488a15.317 15.317 0 0 1 .649-4.394 7.763 7.763 0 0 1 .968-2.052 5.034 5.034 0 0 1 5.093-2.228 4.888 4.888 0 0 1 3.724 2.47 9.333 9.333 0 0 1 1.216 3.451 18.378 18.378 0 0 1-.149 6.953 8.655 8.655 0 0 1-1.148 2.865 4.847 4.847 0 0 1-3.373 2.321 5.085 5.085 0 0 1-5.456-2.349 9.741 9.741 0 0 1-1.271-3.562 19.5 19.5 0 0 1-.253-3.475zm3.621.357c.038.684.036 1.383.123 2.065a14.251 14.251 0 0 0 .406 2.022 3.255 3.255 0 0 0 .531 1.018 1.692 1.692 0 0 0 2.628-.036 2.689 2.689 0 0 0 .394-.721 10.781 10.781 0 0 0 .4-1.685 21.422 21.422 0 0 0 .008-5.286 5.229 5.229 0 0 0-.654-2.2 1.7 1.7 0 0 0-2.926-.042 4.126 4.126 0 0 0-.556 1.375 16.586 16.586 0 0 0-.354 3.49z" class="cls-3" data-name="Path 1767" transform="translate(5811.754 544.693)"/>
        </g>
    </g>
</svg>
