<svg xmlns="http://www.w3.org/2000/svg" width="246" height="80" viewBox="0 0 246 80">
    <defs>
        <style>
            .cls-1{opacity:.72}.cls-2{fill:none}.cls-3{fill:#343434}
        </style>
    </defs>
    <g id="Group_389" class="cls-1" data-name="Group 389" transform="translate(-837 -4974)">
        <path id="Rectangle_331" d="M0 0h246v80H0z" class="cls-2" data-name="Rectangle 331" transform="translate(837 4974)"/>
        <g id="eXUmBW" transform="translate(-1893.426 4993)">
            <path id="Path_1768" d="M-1748.8-800.65v26.672c0 1.826.1 3.661-.056 5.474a2.561 2.561 0 0 1-1.159 1.8q-7.958 3.815-16.022 7.406a2.861 2.861 0 0 1-2.094-.012q-8.053-3.613-16.024-7.4a2.3 2.3 0 0 1-1.188-1.594c-.069-10.661-.051-21.323-.051-32.256.658.262 1.176.443 1.671.67 5.08 2.334 10.138 4.714 15.251 6.968a3.541 3.541 0 0 0 2.568 0c5.119-2.258 10.172-4.639 15.25-6.975.521-.238 1.054-.431 1.854-.753zm-29.257 11.459c0 5.769-.027 11.12.051 16.469 0 .452.637 1.072 1.126 1.31 2.8 1.366 5.62 2.7 8.494 3.9a3.48 3.48 0 0 0 2.43-.02c2.818-1.179 5.546-2.576 8.356-3.779a1.947 1.947 0 0 0 1.355-2.126c-.051-4.592-.018-9.184-.027-13.779 0-.539-.083-1.076-.151-1.826-3.284 1.506-6.295 2.83-9.249 4.273a2.841 2.841 0 0 1-2.791.017c-3.037-1.49-6.137-2.848-9.592-4.439z" class="cls-3" data-name="Path 1768" transform="translate(4533.82 800.65)"/>
            <path id="Path_1769" d="M-1424.331-785.727l-7.31 5.391-7.227-5.283v19.084h-7.243v-33.255c1.855 1.385 3.491 2.6 5.119 3.827 2.541 1.911 5.155 3.734 7.583 5.777 1.355 1.149 2.258.973 3.567-.06 4.065-3.2 8.242-6.26 12.594-9.538v33.273h-7.088z" class="cls-3" data-name="Path 1769" transform="translate(4245.617 799.919)"/>
            <path id="Path_1770" d="M-1071.37-765.761c.354-.885.569-1.477.822-2.05 3.6-8.174 7.154-16.371 10.861-24.5.827-1.807 1.08-3.377.018-5.1a10.612 10.612 0 0 1-.644-1.762c2.182 0 4.2-.03 6.209.035.278.009.664.44.8.753q6.648 16.036 13.249 32.092a3.048 3.048 0 0 1 0 .509c-2.293 0-4.608.057-6.913-.06-.355-.018-.774-.79-.986-1.289-1.9-4.435-1.885-4.44-6.707-4.44-1.825 0-3.651.042-5.474-.015-.958-.032-1.656.232-1.816 1.22-.688 4.173-3.282 5.324-7.132 4.613a14.947 14.947 0 0 0-2.287-.006zm12.564-12.449h6.438a2951.53 2951.53 0 0 0-3-7.505l-.44.092z" class="cls-3" data-name="Path 1770" transform="translate(3927.296 799.398)"/>
            <path id="Path_1771" d="M-724.283-729.243h-18.2c1.111 4.646 6.153 5.623 10.991 2.242l5.072 2.758c-2.582 4.563-10.313 6.445-15.936 3.931a12.456 12.456 0 0 1-6.7-15.336 12.794 12.794 0 0 1 15.086-8.312c6.37 1.46 10.534 7.628 9.687 14.717zm-7.695-5.65a4.94 4.94 0 0 0-4.922-3.607c-2.752-.083-4.607 1.123-5.4 3.606z" class="cls-3" data-name="Path 1771" transform="translate(3654.053 752.779)"/>
            <path id="Path_1772" d="M-540.964-724.09c-3.7 5.107-11.581 6.56-17.246 3.267a12.555 12.555 0 0 1-5.066-15.829 12.853 12.853 0 0 1 15.631-6.926 12.8 12.8 0 0 1 8.639 14.384H-557.1c.917 4.64 6.164 5.7 10.959 2.287zm-16.128-10.777h10.748c-1.325-2.522-3.2-3.646-5.8-3.528a5.291 5.291 0 0 0-4.948 3.528z" class="cls-3" data-name="Path 1772" transform="translate(3496.591 752.691)"/>
            <path id="Path_1773" d="M-1208.921-738.637l-5.378 3.174c-1.454-2.216-3.312-4.012-6.022-3.556a9.122 9.122 0 0 0-4.6 2.213c-2.583 2.49-2.151 6.975.562 9.3 3.085 2.645 6.925 1.927 10.11-2.007l5.209 3.082c-1.9 4.624-7.854 7.3-13.771 6.29a12.561 12.561 0 0 1-10.388-11.766 12.544 12.544 0 0 1 8.717-12.523c6.267-1.977 12.257.185 15.561 5.793z" class="cls-3" data-name="Path 1773" transform="translate(4064.792 753.504)"/>
            <path id="Path_1774" d="M-854.774-766.144v-14.879l-2.826-.2v-6.036l2.751-.2c-.1-4.553.391-8.9 5.143-11.064a11.656 11.656 0 0 1 9.566.069l-2.668 5.82c-4.61-.921-6.015.507-5.072 5.211h4.107v6.253h-4.347v15.028z" class="cls-3" data-name="Path 1774" transform="translate(3745.71 799.691)"/>
        </g>
    </g>
</svg>
