<svg xmlns="http://www.w3.org/2000/svg" width="246" height="80" viewBox="0 0 246 80">
    <defs>
        <style>
            .cls-1{opacity:.72}.cls-2{fill:none}.cls-3{fill:#343434}
        </style>
    </defs>
    <g id="Group_388" class="cls-1" data-name="Group 388" transform="translate(-1115 -4974)">
        <path id="Rectangle_305" d="M0 0h246v80H0z" class="cls-2" data-name="Rectangle 305" transform="translate(1115 4974)"/>
        <g id="Group_388-2" data-name="Group 388" transform="translate(-1310.18 5033.084)">
            <path id="Path_1775" d="M-2748.027-751.7c-.1.4-.194.8-.294 1.192a8.166 8.166 0 0 1-4.938 5.61 17.165 17.165 0 0 1-5.55 1.328 30.489 30.489 0 0 1-11.247-1.112.89.89 0 0 1-.725-.839c-.264-1.891-.547-3.779-.819-5.67a.65.65 0 0 1 .026-.172c.816.3 1.607.621 2.42.878a24.032 24.032 0 0 0 8.226 1.278 7.884 7.884 0 0 0 2.416-.464 2.391 2.391 0 0 0 .564-4.291 15.325 15.325 0 0 0-2.9-1.45c-1.617-.678-3.288-1.234-4.892-1.94a8.753 8.753 0 0 1-3.528-2.722 7.994 7.994 0 0 1-1.463-5.969c.473-4.1 3.173-6.106 6.881-7.07a23.858 23.858 0 0 1 8.476-.443c1.45.148 2.891.414 4.331.654.142.023.355.187.371.311.229 1.809.431 3.625.636 5.436a3.909 3.909 0 0 1 0 .414c-.177-.045-.305-.067-.427-.109a21.542 21.542 0 0 0-7.917-1.219 6.866 6.866 0 0 0-2.3.482 2.016 2.016 0 0 0-.552 3.547 7.379 7.379 0 0 0 1.99 1.173c1.735.709 3.515 1.307 5.259 2a11.562 11.562 0 0 1 3.729 2.279 6.875 6.875 0 0 1 2.089 3.78 1.722 1.722 0 0 0 .142.313z" class="cls-3" data-name="Path 1775" transform="translate(5378.766 725.65)"/>
            <path id="Path_1776" d="M-3860.31-767.39h8.7v.621c0 3.434.012 6.87-.013 10.3 0 .537.154.662.669.658q4.091-.037 8.183 0c.427 0 .556-.116.554-.55-.018-3.452-.009-6.9-.009-10.357v-.661h8.7v28.946h-8.7v-.629c0-3.383-.01-6.766.01-10.15 0-.5-.1-.687-.648-.68q-4.064.044-8.129 0c-.518 0-.629.165-.627.649.02 3.383.01 6.767.01 10.15v.658h-8.7z" class="cls-3" data-name="Path 1776" transform="translate(6354.713 719.963)"/>
            <path id="Path_1777" d="M-4142.653-758.323v-13.879c0-.4 0-.651.549-.679 1.477-.079 2.948-.289 4.425-.364 2.134-.1 4.274-.207 6.41-.191a23.577 23.577 0 0 1 7.38 1.1 9.192 9.192 0 0 1 6.673 8.6 13.2 13.2 0 0 1-.811 6.085 10.412 10.412 0 0 1-6.9 6.079 19.078 19.078 0 0 1-5.6.816 49.22 49.22 0 0 1-2.744-.007c-.476-.019-.63.133-.622.609.021 1.9-.008 3.8.019 5.7.007.513-.121.674-.66.667-2.5-.031-5.005-.025-7.508 0-.467 0-.616-.111-.614-.6.01-4.649.003-9.293.003-13.936zm8.761-3.619v5.537c0 .377.084.579.522.549.841-.058 1.693-.008 2.526-.116a5.155 5.155 0 0 0 4.545-3.323 8.182 8.182 0 0 0 .435-4.007 4.9 4.9 0 0 0-3.782-4.448 14.6 14.6 0 0 0-3.642-.311c-.5-.017-.612.179-.608.63.014 1.831.004 3.661.004 5.489z" class="cls-3" data-name="Path 1777" transform="translate(6607.82 725.384)"/>
            <path id="Path_1778" d="M-3028.214-744.021c-.207.012-.348.028-.484.028-2.589 0-5.178-.008-7.768.01-.42 0-.524-.136-.524-.531q.012-14 0-28.007c0-.358.078-.509.479-.535 2.337-.151 4.668-.368 7.006-.5a39.062 39.062 0 0 1 7.59.207 15.953 15.953 0 0 1 5.7 1.724 8.792 8.792 0 0 1 4.557 6.939 13.493 13.493 0 0 1-.54 6.378 10.4 10.4 0 0 1-7.091 6.553 18.914 18.914 0 0 1-5.6.816c-.9.014-1.8.028-2.693-.007-.487-.02-.653.11-.645.621.031 1.9.011 3.8.011 5.7zm0-18.15v5.536a.305.305 0 0 1 0 .052c-.054.4.091.566.518.538.829-.055 1.657-.038 2.475-.11a5.106 5.106 0 0 0 4.744-3.951 11.2 11.2 0 0 0 .265-3.272 4.848 4.848 0 0 0-3.684-4.533 13.662 13.662 0 0 0-3.793-.328c-.415-.007-.532.125-.528.532.015 1.846 0 3.691 0 5.537z" class="cls-3" data-name="Path 1778" transform="translate(5616.667 725.573)"/>
            <path id="Path_1779" d="M-3386.326-767.713h7.9c.866 0 .812-.147.812.789v21.689c0 .818 0 .818.808.818h7.7c-.1.479-.179.923-.279 1.362l-.9 3.921c-.061.274-.136.459-.489.458q-7.664-.018-15.323-.01a1.767 1.767 0 0 1-.238-.036z" class="cls-3" data-name="Path 1779" transform="translate(5929.825 720.26)"/>
            <path id="Path_1780" d="M-3527.207-753.183c0 4.642-.007 9.284.01 13.927 0 .473-.123.611-.6.607q-3.805-.036-7.61 0c-.422 0-.562-.1-.562-.544q.017-13.982 0-27.956c0-.427.12-.556.553-.552q3.805.028 7.61 0c.465 0 .614.1.612.6-.021 4.635-.013 9.276-.013 13.918z" class="cls-3" data-name="Path 1780" transform="translate(6063.967 720.242)"/>
            <path id="Path_1781" d="M-3187.327-767.4h8.674c.011.207.03.387.03.57q0 13.926.012 27.851c0 .484-.143.6-.61.6-2.519-.022-5.039-.01-7.561-.01h-.549z" class="cls-3" data-name="Path 1781" transform="translate(5751.437 719.972)"/>
            <path id="Path_1782" d="M-3955.78-393.019v-19.368c0-.689 0-.69.668-.691.518 0 1.036.022 1.554-.007.432-.024.564.142.561.567-.014 2.468-.007 4.936-.006 7.4 0 .76 0 .761.777.761 3.332 0 6.664-.011 9.995.011.531 0 .668-.153.663-.673-.026-2.5 0-5.006-.021-7.509 0-.426.117-.584.552-.562.622.031 1.243.017 1.864.005.3-.005.429.09.429.414q-.012 9.684-.008 19.368a1.944 1.944 0 0 1-.036.24h-2.79v-.614c0-2.52-.011-5.041.009-7.561 0-.46-.14-.587-.591-.585q-5.127.024-10.254 0c-.457 0-.6.15-.6.6.014 2.52-.007 5.04.019 7.561.005.528-.145.695-.671.658-.666-.051-1.34-.015-2.114-.015z" class="cls-3" data-name="Path 1782" transform="translate(6440.295 402.358)"/>
            <path id="Path_1783" d="M-3327.273-393.031v-.644c0-2.658.008-5.314 0-7.975a2.668 2.668 0 0 0-2.186-2.8 5.414 5.414 0 0 0-1.894.311 2.778 2.778 0 0 0-.737.467 2.507 2.507 0 0 0-1.188 2.423c.1 2.515.03 5.037.03 7.561v.648c-.8 0-1.569 0-2.337-.009-.062 0-.156-.124-.175-.207a1.756 1.756 0 0 1-.017-.414v-18.73c0-.688 0-.688.669-.69.448 0 .9.02 1.346-.006.407-.023.526.125.518.534-.019 2.451-.009 4.9-.009 7.354v.55l.171.115a3.478 3.478 0 0 1 .319-.438 4.9 4.9 0 0 1 3.556-1.536 4.168 4.168 0 0 1 4.344 3.85 20.9 20.9 0 0 1 .114 2.112c.013 2.347 0 4.693.012 7.043 0 .382-.1.518-.5.5-.649-.041-1.303-.019-2.036-.019z" class="cls-3" data-name="Path 1783" transform="translate(5884.513 402.37)"/>
            <path id="Path_1784" d="M-2832.788-342.642h-9.371a4.074 4.074 0 0 0 .786 2.542 4.214 4.214 0 0 0 3.793 1.692 8.218 8.218 0 0 0 4.5-1.554c0 .819.012 1.554-.012 2.285 0 .117-.147.263-.263.338a9.15 9.15 0 0 1-5.74 1.278c-3.372-.2-5.631-3.4-5.626-6.677a7.234 7.234 0 0 1 1.521-4.874 5.746 5.746 0 0 1 6.206-1.893 5.281 5.281 0 0 1 3.907 4.383 24.789 24.789 0 0 1 .299 2.48zm-2.6-1.52a3.155 3.155 0 0 0-1.45-2.893 3.357 3.357 0 0 0-3.719.1 3.661 3.661 0 0 0-1.565 2.8z" class="cls-3" data-name="Path 1784" transform="translate(5444.312 345.571)"/>
            <path id="Path_1785" d="M-3755.156-342.57a4.12 4.12 0 0 0 3.692 4.22 7.975 7.975 0 0 0 5-1.284c.1-.062.2-.118.363-.215 0 .786.015 1.5-.012 2.222a.6.6 0 0 1-.272.384 9.285 9.285 0 0 1-5.792 1.264c-3.152-.184-5.528-3.211-5.564-6.575a7.361 7.361 0 0 1 1.4-4.814 5.73 5.73 0 0 1 6.04-2.119c2.394.482 3.653 2.147 4.191 4.41a22.265 22.265 0 0 1 .311 2.511zm6.732-1.513a3.086 3.086 0 0 0-3.375-3.354 3.4 3.4 0 0 0-3.262 3.354z" class="cls-3" data-name="Path 1785" transform="translate(6262.765 345.485)"/>
            <path id="Path_1786" d="M-3613.877-338.242c0 .485.007.876-.006 1.267a.363.363 0 0 1-.127.259 3.881 3.881 0 0 1-2.944.838A1.641 1.641 0 0 1-3618.3-337a22.165 22.165 0 0 1-2.339.993 3.454 3.454 0 0 1-3.375-.539 3.218 3.218 0 0 1-.326-4.585 5.485 5.485 0 0 1 2.395-1.57c1.068-.385 2.139-.763 3.218-1.112a.565.565 0 0 0 .459-.627c.015-1.6-.693-2.568-1.978-2.674a4.633 4.633 0 0 0-3.131.823c-.5.352-.969.757-1.513 1.186 0-.861-.012-1.678.011-2.5a.72.72 0 0 1 .25-.424 5.628 5.628 0 0 1 4.67-1.464 5.745 5.745 0 0 1 1.886.477 3.551 3.551 0 0 1 2.228 3.374c.028 1.517.027 3.035.035 4.552v2.432c0 1.071.346 1.276 1.289.777.185-.088.36-.2.644-.361zm-4.4-4.392a11.708 11.708 0 0 0-3.751 1.8 1.914 1.914 0 0 0 .672 3.172 3.108 3.108 0 0 0 2.932-.841.569.569 0 0 0 .141-.32c.01-1.215.006-2.44.006-3.8z" class="cls-3" data-name="Path 1786" transform="translate(6143.907 345.373)"/>
            <path id="Path_1787" d="M-3066.785-338.193a.585.585 0 0 1 .039.114c-.044.465.087 1.139-.17 1.358a3.4 3.4 0 0 1-2.773.87 1.675 1.675 0 0 1-1.483-1.243c-.286.173-.528.325-.777.468a5.024 5.024 0 0 1-3.461.732 2.894 2.894 0 0 1-2.409-2.085 3.171 3.171 0 0 1 .738-3.264 6.07 6.07 0 0 1 2.581-1.565c.911-.311 1.815-.654 2.739-.927.5-.15.719-.408.631-.925a8.734 8.734 0 0 0-.167-1.066 1.982 1.982 0 0 0-1.856-1.393 5.072 5.072 0 0 0-3.786 1.357c-.246.207-.487.424-.807.7 0-.913-.02-1.733.014-2.55a.894.894 0 0 1 .327-.5 5.643 5.643 0 0 1 4.661-1.367 6.231 6.231 0 0 1 2.2.663 3.381 3.381 0 0 1 1.856 3.128c.018 2.279.006 4.557.041 6.836a1.674 1.674 0 0 0 .311 1.127c.362.32.794-.074 1.172-.262.109-.056.225-.123.379-.206zm-4.35-4.437c-.812.317-1.522.561-2.2.87a7.181 7.181 0 0 0-1.421.822 1.806 1.806 0 0 0-.622 2 1.719 1.719 0 0 0 1.469 1.34 2.88 2.88 0 0 0 2.427-.735 1.068 1.068 0 0 0 .336-.685c.043-.686.015-1.375.015-2.064z" class="cls-3" data-name="Path 1787" transform="translate(5653.422 345.371)"/>
            <path id="Path_1788" d="M-3189.693-346.084c-.622-.284-1.131-.569-1.677-.76-1.627-.573-3.237-.663-4.618.573a4.6 4.6 0 0 0-1.268 5.065 4 4 0 0 0 3.657 2.891 7.713 7.713 0 0 0 3.631-.568c.156-.055.311-.112.554-.2 0 .8.006 1.537-.01 2.271a.35.35 0 0 1-.19.262c-2.686.867-5.358 1.122-7.833-.56a6.267 6.267 0 0 1-2.609-5.662 6.7 6.7 0 0 1 2.44-5.516 6.259 6.259 0 0 1 4.868-1.267 21.4 21.4 0 0 1 2.638.662.527.527 0 0 1 .424.607c-.014.703-.007 1.41-.007 2.202z" class="cls-3" data-name="Path 1788" transform="translate(5762.845 345.463)"/>
            <path id="Path_1789" d="M-3448.06-366.451l4.635-4.789.139.027v1.714c0 .8 0 .8.776.8 1 0 2 .011 3-.006.336-.006.465.1.448.441a12.638 12.638 0 0 0 0 1.346c.022.371-.134.477-.483.473-1.069-.013-2.139 0-3.211-.008-.355 0-.545.091-.539.493.032 2.206.019 4.413.079 6.618a1.774 1.774 0 0 0 2.215 1.776c.882-.166 1.739-.471 2.639-.725 0 .613.015 1.281-.012 1.947a.541.541 0 0 1-.275.374 6.1 6.1 0 0 1-4.557.444 3.446 3.446 0 0 1-2.531-3.4c-.03-2.279-.028-4.557-.041-6.83 0-.695 0-.7-.686-.7z" class="cls-3" data-name="Path 1789" transform="translate(5985.162 364.844)"/>
            <path id="Path_1790" d="M-3492.729-393.113v-.588q0-9.425-.011-18.85c0-.5.134-.676.635-.636a14.5 14.5 0 0 0 1.5.007c.311-.007.451.116.429.427-.007.1 0 .207 0 .311v18.642c0 .688 0 .688-.666.689z" class="cls-3" data-name="Path 1790" transform="translate(6025.214 402.452)"/>
            <path id="Path_1791" d="M-2935.251-345.928c-.425-.3-.786-.59-1.185-.818a2.466 2.466 0 0 0-3.279.473 4.284 4.284 0 0 0-1.243 3.033c-.018 2.175-.005 4.35-.005 6.525v.588h-2.5v-13.126h2.492v2.747l.118.046c.1-.123.191-.249.288-.371.441-.551.839-1.139 1.332-1.645a3.051 3.051 0 0 1 4.247-.461c1.12.705 1.12.705.454 1.809z" class="cls-3" data-name="Path 1791" transform="translate(5532.825 345.434)"/>
        </g>
    </g>
</svg>
