<svg xmlns="http://www.w3.org/2000/svg" width="246" height="80" viewBox="0 0 246 80">
    <defs>
        <style>
            .cls-1{opacity:.72}.cls-2{fill:none}.cls-3{fill:#b5b5b5}.cls-4{fill:#343434}.cls-5{fill:#fff}
        </style>
    </defs>
    <g id="Group_361" class="cls-1" data-name="Group 361" transform="translate(-1393 -4974)">
        <path id="Rectangle_305" d="M0 0h246v80H0z" class="cls-2" data-name="Rectangle 305" transform="translate(1393 4974)"/>
        <g id="Group_308" data-name="Group 308" transform="translate(483.764 2854.189)">
            <path id="Path_138" d="M1012.15 2178.989c0-3.944-.018-7.725.015-11.506.007-.762-.385-1.973 1.021-1.861 1.142.091 2.707-.875 3.184 1.328.874 4.036 1.975 8.021 2.984 12.038h5.393c-.135-.694-.221-1.281-.365-1.854-1.028-4.08-2.113-8.147-3.058-12.247a4.2 4.2 0 0 1 .466-2.241c.577-1.449 1.712-2.82 1.821-4.282a47.509 47.509 0 0 0-.195-9.31 5.493 5.493 0 0 0-4.871-5.044c-3.724-.445-7.505-.406-11.343-.578v35.557zm75.575.27c0-3.777-.042-7.433.033-11.086.016-.8-.693-2.187.992-2.23 1.348-.034 2.883-.608 3.289 1.725.6 3.415 1.565 6.768 2.443 10.129.148.566.6 1.445.985 1.489a44.992 44.992 0 0 0 4.877.071c-1.228-4.867-2.32-9.418-3.556-13.931a2.943 2.943 0 0 1 .574-2.634 10.858 10.858 0 0 0 1.752-4.308 47.629 47.629 0 0 0-.02-8.053c-.234-3.276-2.1-5.658-5.376-6.036-3.584-.413-7.253-.094-10.932-.094v34.958zm-24.108-17.7c0 3.3-.042 6.607.01 9.91a8.35 8.35 0 0 0 16.69.417q.268-10.178.007-20.368c-.121-4.78-3.965-8.062-8.778-7.923a8.259 8.259 0 0 0-7.927 8.421c-.035 3.184-.008 6.361-.003 9.542zm-77.649-17.872a3.261 3.261 0 0 0-.144.62c-.007 8.93-.072 17.862.053 26.79a9.616 9.616 0 0 0 1.376 4.475 8.36 8.36 0 0 0 15.426-4.653c.044-8.5.02-17 .013-25.507 0-.58-.1-1.159-.146-1.688h-5.076v2.31q0 11.744-.01 23.489a9.993 9.993 0 0 1-.243 2.354 3.187 3.187 0 0 1-6.057.247 7.3 7.3 0 0 1-.3-2.334q-.03-11.928-.012-23.855v-2.248zm57.72 7.766a7.558 7.558 0 0 0-6.6-7.8c-4.663-.684-8.43 1.506-9.461 5.543a10.748 10.748 0 0 0 2.595 10.55c2 2.14 4.208 4.08 6.3 6.131a6.871 6.871 0 0 1 2.5 5.106c-.037 2.137-1.192 3.676-3.044 3.985-1.651.276-3.082-.711-3.826-2.708-.311-.833-.516-1.707-.786-2.619l-4.57.216a10.563 10.563 0 0 0 2.469 7.142 9.019 9.019 0 0 0 10.927 1.72c3.194-1.793 4.8-6.517 3.547-10.5-1.049-3.33-3.316-5.77-5.841-8.055a35.334 35.334 0 0 1-4.288-4.467 5.27 5.27 0 0 1-.694-5.555 3.814 3.814 0 0 1 2.5-1.959c.833-.1 1.977.736 2.661 1.463a9.051 9.051 0 0 1 1.2 2.675zm62.283-7.4h-5.682c1.492 4.3 2.8 8.555 4.436 12.676a34.113 34.113 0 0 1 2.679 15.518c-.187 2.352-.032 4.731-.032 7.171h5.255c0-4.446-.02-8.772.016-13.1a8.939 8.939 0 0 1 .36-2.693c1.128-3.415 2.352-6.8 3.533-10.2 1.072-3.084 2.134-6.171 3.26-9.43-1.56 0-2.851.1-4.118-.029-1.243-.126-1.744.435-2.025 1.518q-1.557 6-3.179 11.993c-.046.168-.254.293-.359.407zm-142.255-.528a37.143 37.143 0 0 1-3.794-.025c-1.531-.169-2.1.494-2.482 1.919-1.076 4.047-2.323 8.049-3.428 11.815-1.206-3.981-2.462-8.222-3.8-12.436-.159-.5-.754-1.16-1.2-1.206-1.5-.151-3.018-.057-4.768-.057 1.477 4.276 2.682 8.378 4.3 12.308a35.693 35.693 0 0 1 2.8 16.593c-.165 2.162-.027 4.348-.027 6.5h5.163c0-4.271-.058-8.418.032-12.562a14.007 14.007 0 0 1 .707-4.105c2.071-6.169 4.252-12.305 6.496-18.74zm81.692.529v4.981a26.621 26.621 0 0 0 3.4-.026c1.943-.26 2.534.59 2.278 2.376a10.482 10.482 0 0 0-.01 1.465q-.005 12.371 0 24.74c0 .706-.362 1.738.94 1.77 1.326.032 2.654.007 4.2.007v-30.388h5.487v-4.925z" class="cls-3" data-name="Path 138" transform="translate(0 -1.026)"/>
            <path id="Path_139" d="M1008.728 2141.811a30.7 30.7 0 0 1 5.007 2.4c2.184 1.562 2.875 4.05 2.9 6.639.053 6.23.078 12.462-.006 18.691-.056 4.144-2.183 7.171-5.621 8.4a8.456 8.456 0 0 1-9.309-2.5 8.749 8.749 0 0 1-2-6.112c0-6.047-.016-12.094 0-18.142.017-5 2.372-7.9 7.283-9.059a3.08 3.08 0 0 0 .643-.323zm2.557 18.412c0-2.992.014-5.984 0-8.975-.016-2.708-1.19-4.115-3.358-4.082-2.071.031-3.228 1.428-3.236 4.025q-.029 8.975 0 17.95c.009 2.538 1.237 4 3.269 4.018 2.048.014 3.3-1.447 3.322-3.961.018-2.992.003-5.983.003-8.975z" class="cls-4" data-name="Path 139" transform="translate(-35.1)"/>
            <path id="Path_140" d="M1120.723 2178.989h-4.948v-35.557c3.838.172 7.619.133 11.343.578a5.493 5.493 0 0 1 4.871 5.044 47.5 47.5 0 0 1 .195 9.31c-.109 1.462-1.244 2.833-1.821 4.282a4.2 4.2 0 0 0-.466 2.241c.945 4.1 2.03 8.167 3.058 12.247.144.573.23 1.161.365 1.854h-5.393c-1.009-4.017-2.11-8-2.984-12.038-.477-2.2-2.042-1.237-3.184-1.328-1.406-.112-1.014 1.1-1.02 1.861-.034 3.781-.016 7.562-.016 11.506zm.008-18.479c1.116 0 1.957.014 2.8 0 2.662-.051 3.849-1.268 3.874-3.974q.018-1.92 0-3.841a4.248 4.248 0 0 0-6.1-3.89 1.307 1.307 0 0 0-.55.995c-.04 3.463-.024 6.929-.024 10.71z" class="cls-4" data-name="Path 140" transform="translate(-108.573 -1.026)"/>
            <path id="Path_141" d="M1326.629 2180.553h-4.938V2145.6c3.679 0 7.347-.319 10.932.094 3.273.377 5.141 2.759 5.376 6.036a47.616 47.616 0 0 1 .02 8.053 10.864 10.864 0 0 1-1.752 4.308 2.942 2.942 0 0 0-.574 2.634c1.235 4.512 2.327 9.064 3.556 13.93a44.867 44.867 0 0 1-4.877-.071c-.388-.043-.837-.922-.985-1.489-.879-3.361-1.848-6.714-2.443-10.129-.406-2.333-1.941-1.759-3.289-1.725-1.684.043-.975 1.429-.992 2.23-.077 3.65-.034 7.305-.034 11.082zm.006-18.4h2.469c3.043-.012 4.171-1.139 4.192-4.2.008-1.157.014-2.314 0-3.471a4.2 4.2 0 0 0-6.063-3.954 1.265 1.265 0 0 0-.57.963c-.044 3.461-.028 6.92-.028 10.664z" class="cls-4" data-name="Path 141" transform="translate(-238.904 -2.321)"/>
            <path id="Path_142" d="M1269.435 2161.828c0-3.181-.03-6.362 0-9.543a8.26 8.26 0 0 1 7.927-8.421c4.813-.138 8.657 3.144 8.778 7.924q.258 10.178-.007 20.368a8.35 8.35 0 0 1-16.69-.417c-.043-3.303-.005-6.607-.008-9.911zm11.412-.183c0-3 .013-5.992 0-8.987-.013-2.407-1.235-3.809-3.252-3.785-1.951.024-3.144 1.387-3.149 3.684q-.021 9.263 0 18.525c.006 2.333 1.169 3.66 3.139 3.684 2.045.024 3.247-1.34 3.261-3.768.016-3.116.002-6.234.002-9.352z" class="cls-4" data-name="Path 142" transform="translate(-205.822 -1.297)"/>
            <path id="Path_143" d="M1057.635 2144.123h4.885v2.248q0 11.927.012 23.855a7.288 7.288 0 0 0 .3 2.334 3.187 3.187 0 0 0 6.057-.247 10 10 0 0 0 .243-2.354q.025-11.744.01-23.489v-2.31h5.074c.048.529.145 1.109.146 1.688.008 8.5.031 17-.013 25.506a8.359 8.359 0 0 1-15.426 4.653 9.616 9.616 0 0 1-1.376-4.475c-.125-8.929-.06-17.86-.052-26.79a3.275 3.275 0 0 1 .14-.619z" class="cls-4" data-name="Path 143" transform="translate(-71.669 -1.463)"/>
            <path id="Path_144" d="M1186.06 2151.612l-4.4.862a9.055 9.055 0 0 0-1.2-2.675c-.684-.727-1.828-1.566-2.661-1.463a3.813 3.813 0 0 0-2.5 1.959 5.27 5.27 0 0 0 .694 5.555 35.318 35.318 0 0 0 4.288 4.467c2.525 2.285 4.792 4.724 5.841 8.055 1.256 3.985-.352 8.71-3.547 10.5a9.02 9.02 0 0 1-10.927-1.72 10.562 10.562 0 0 1-2.469-7.142l4.57-.215c.27.913.475 1.786.786 2.62.744 2 2.174 2.984 3.826 2.708 1.852-.309 3.007-1.847 3.044-3.985a6.87 6.87 0 0 0-2.5-5.106c-2.094-2.051-4.3-3.992-6.3-6.131a10.748 10.748 0 0 1-2.595-10.55c1.03-4.037 4.8-6.227 9.461-5.543a7.557 7.557 0 0 1 6.589 7.804z" class="cls-4" data-name="Path 144" transform="translate(-142.373 -1.187)"/>
            <path id="Path_145" d="M1375.054 2144.964l4.145 13.838c.1-.114.313-.239.359-.407q1.61-5.991 3.179-11.993c.281-1.083.782-1.644 2.025-1.517 1.267.129 2.558.029 4.118.029-1.126 3.259-2.188 6.346-3.26 9.43-1.181 3.4-2.405 6.78-3.533 10.2a8.945 8.945 0 0 0-.36 2.693c-.036 4.326-.016 8.652-.016 13.1h-5.255c0-2.44-.155-4.819.031-7.171a34.116 34.116 0 0 0-2.679-15.518c-1.637-4.121-2.945-8.374-4.436-12.676z" class="cls-4" data-name="Path 145" transform="translate(-269.084 -1.933)"/>
            <path id="Path_146" d="M963.715 2143.608c-2.243 6.435-4.424 12.573-6.5 18.747a14.008 14.008 0 0 0-.707 4.105c-.09 4.143-.032 8.29-.032 12.562h-5.166c0-2.155-.138-4.34.027-6.5a35.691 35.691 0 0 0-2.8-16.593c-1.621-3.93-2.826-8.032-4.3-12.308 1.75 0 3.272-.094 4.768.058.447.045 1.043.708 1.2 1.206 1.342 4.214 2.6 8.455 3.8 12.436 1.105-3.766 2.352-7.767 3.428-11.814.379-1.425.952-2.089 2.482-1.919a37.213 37.213 0 0 0 3.8.02z" class="cls-4" data-name="Path 146" transform="translate(0 -1.105)"/>
            <path id="Path_147" d="M1219.856 2145.137h16.3v4.925h-5.487v30.388c-1.547 0-2.875.025-4.2-.008-1.3-.032-.938-1.063-.94-1.77q-.027-12.37 0-24.74a10.466 10.466 0 0 1 .01-1.465c.256-1.786-.336-2.635-2.278-2.376a26.625 26.625 0 0 1-3.405.026z" class="cls-4" data-name="Path 147" transform="translate(-174.45 -2.105)"/>
            <path id="Path_148" d="M1019.874 2169.455c0 2.992.02 5.983-.006 8.975-.022 2.514-1.274 3.975-3.322 3.961-2.032-.014-3.261-1.48-3.269-4.018q-.03-8.975 0-17.95c.008-2.6 1.165-4 3.236-4.026 2.169-.032 3.342 1.375 3.358 4.083.017 2.991.003 5.983.003 8.975z" class="cls-5" data-name="Path 148" transform="translate(-43.689 -9.232)"/>
            <path id="Path_149" d="M1129.271 2169.035c0-3.782-.016-7.248.025-10.712a1.307 1.307 0 0 1 .55-.995 4.248 4.248 0 0 1 6.1 3.89q.016 1.92 0 3.841c-.025 2.705-1.212 3.923-3.874 3.974-.844.015-1.685.002-2.801.002z" class="cls-5" data-name="Path 149" transform="translate(-117.113 -9.55)"/>
            <path id="Path_150" d="M1289.485 2170.292c0 3.118.014 6.237 0 9.354-.014 2.427-1.216 3.792-3.261 3.768-1.969-.024-3.132-1.352-3.139-3.684q-.025-9.263 0-18.525c.005-2.3 1.2-3.66 3.149-3.684 2.018-.024 3.24 1.378 3.253 3.785.013 2.994-.002 5.994-.002 8.986z" class="cls-5" data-name="Path 150" transform="translate(-214.459 -9.942)"/>
            <path id="Path_1707" d="M1129.271 2169.035c0-3.782-.016-7.248.025-10.712a1.307 1.307 0 0 1 .55-.995 4.248 4.248 0 0 1 6.1 3.89q.016 1.92 0 3.841c-.025 2.705-1.212 3.923-3.874 3.974-.844.015-1.685.002-2.801.002z" class="cls-5" data-name="Path 1707" transform="translate(-41.131 -9.55)"/>
        </g>
    </g>
</svg>
