<svg xmlns="http://www.w3.org/2000/svg" width="246" height="80" viewBox="0 0 246 80">
  <g id="Group_266" data-name="Group 266" transform="translate(-1393 -4759)">
    <g id="Group_150" data-name="Group 150" transform="translate(3350.654 3657.758)" opacity="0.6">
      <path id="Path_98" data-name="Path 98" d="M-1888.3,1146.686v-11.218h10.236V1156l.23.079c.139-.286.293-.565.415-.858,2.613-6.282,5.238-12.559,7.813-18.856a1.342,1.342,0,0,1,1.489-1q4.962.068,9.926,0a1.25,1.25,0,0,1,1.358.905c2.128,4.939,4.3,9.862,6.454,14.789a3.969,3.969,0,0,0,.55.943,15.23,15.23,0,0,1,2.708-12.117,14.154,14.154,0,0,1,10.8-5.975c6.765-.422,13.723,3.853,14.9,9.049-1.76,0-3.5.009-5.242,0a60.209,60.209,0,0,1-8.032-.386,5.987,5.987,0,0,0-6.521,4.774,6.25,6.25,0,0,0,3.832,7.246,6.261,6.261,0,0,0,7.609-2.635c.125-.212.2-.452.381-.858h-7.451v-5.175h1.192q14.355,0,28.71,0a6.249,6.249,0,0,0,1.067-.041,1.465,1.465,0,0,0,1.305-1.646,1.377,1.377,0,0,0-1.543-1.28q-6.764.015-13.528,0h-1.228v-7.519c.376-.019.751-.054,1.126-.055,5.45,0,10.9.079,16.35-.027a8.021,8.021,0,0,1,8.077,5.493,8.744,8.744,0,0,1-3.084,9.8c-.154.115-.3.235-.549.425l2.845,4.156c.219-.478.38-.8.52-1.14,2.469-5.92,4.947-11.837,7.388-17.769a1.285,1.285,0,0,1,1.412-.965c3.373.051,6.747.037,10.121.008a1.07,1.07,0,0,1,1.155.759q5.586,12.834,11.21,25.652c.1.23.17.474.3.837h-1.032q-18.345.011-36.69.04a1.679,1.679,0,0,1-1.625-.895c-2.267-3.552-4.583-7.072-7.082-10.583v11.381H-1820.7v-8.8l-.234-.144c-2.266,5.56-6.228,9.086-12.181,9.872-5.983.791-10.772-1.5-14.537-6.229l2.26,5.285c-.382.028-.654.065-.926.065q-20.535,0-41.07.02a1.276,1.276,0,0,1-1.366-.9c-1.551-3.459-3.154-6.895-4.741-10.338a1.626,1.626,0,0,0-.63-.773v11.932h-10c-.02-.371-.054-.718-.054-1.064,0-8.337.008-16.674-.019-25.011,0-.816.157-1.15,1.06-1.122,2.106.067,4.217.048,6.325.006a1.445,1.445,0,0,1,1.4.782c2.073,3.255,4.179,6.488,6.276,9.727.19.294.393.579.59.869Zm106.747-.387-4.293,8.647h8.371Zm-77.284,8.684-4.1-8.683-4.257,8.683Z" transform="translate(-0.368 -15.016)" fill="#fff"/>
      <path id="Path_99" data-name="Path 99" d="M-1903.751,1117.434v-2.192h140.213v2.192Z" transform="translate(-0.727)" fill="#fff"/>
      <path id="Path_100" data-name="Path 100" d="M-1764.354,1294.363H-1903.1c-1.455,0-1.78-.41-1.422-1.869a.764.764,0,0,1,.494-.436,4.236,4.236,0,0,1,.969-.023h137.137C-1764.005,1292.035-1763.823,1292.287-1764.354,1294.363Z" transform="translate(0 -142.364)" fill="#fff"/>
      <path id="Path_101" data-name="Path 101" d="M-1696.293,1315.111c2.113,0,4.186-.118,6.237.038a3.66,3.66,0,0,1,3.17,2.677,8.4,8.4,0,0,1-.228,6.351,3.973,3.973,0,0,1-3.492,2.586c-1.866.114-3.744.026-5.687.026Zm2.27,5.793v3.109a.28.28,0,0,0,0,.1c.1.244.135.614.314.707a4.732,4.732,0,0,0,3.775-.641c1.412-1.7,1.318-3.678.716-5.614-.53-1.7-2.068-1.6-3.482-1.587a4.351,4.351,0,0,1-.485,0c-.614-.062-.878.168-.851.822C-1693.991,1318.831-1694.023,1319.868-1694.023,1320.9Z" transform="translate(-167.801 -160.928)" fill="#fff"/>
      <path id="Path_102" data-name="Path 102" d="M-1903.746,1314.738h2.334v4.779a34.63,34.63,0,0,0,3.075-3.3c1.14-1.6,2.614-1.759,4.416-1.434l-4.725,4.55,5.22,7.156c-1.052,0-1.914.052-2.763-.03-.278-.027-.58-.36-.771-.625-1.058-1.467-2.085-2.957-3.151-4.478a2.169,2.169,0,0,0-1.323,2.207,27.743,27.743,0,0,1,.02,2.865h-2.331Z" transform="translate(-0.731 -160.588)" fill="#fff"/>
      <path id="Path_103" data-name="Path 103" d="M-1295.657,1326.527h-2.208v-11.711h2.339v4.466l.231.08a30.358,30.358,0,0,0,3-3.235c1.123-1.606,2.6-1.48,4.359-1.3l-4.784,4.631,5.192,7.1c-1.033,0-1.865.049-2.686-.027a1.372,1.372,0,0,1-.8-.568c-.927-1.249-1.813-2.528-2.717-3.795-.183-.256-.382-.5-.577-.753C-1296.408,1322.729-1295.083,1324.806-1295.657,1326.527Z" transform="translate(-488.671 -160.651)" fill="#fff"/>
      <path id="Path_104" data-name="Path 104" d="M-1391.975,1316.614h-2.1c-.8-1.564-1.716-2.029-3.358-1.665-.717.159-1.279.531-1.317,1.344-.036.794.476,1.138,1.178,1.307,1.2.288,2.394.566,3.577.9,1.684.479,2.446,1.356,2.525,2.8a3.4,3.4,0,0,1-2.195,3.544,6.922,6.922,0,0,1-5.307-.016,3.188,3.188,0,0,1-2.077-3.365,7.422,7.422,0,0,1,1.423.024,1.321,1.321,0,0,1,.832.544c.75,1.39,3.5,1.828,4.6.693a1.191,1.191,0,0,0-.464-2.038,23.149,23.149,0,0,0-2.422-.694c-.593-.162-1.2-.283-1.78-.478a2.743,2.743,0,0,1-2.11-2.5,3.247,3.247,0,0,1,1.626-3.471,5.882,5.882,0,0,1,5.6-.012A3.341,3.341,0,0,1-1391.975,1316.614Z" transform="translate(-405.558 -159.129)" fill="#fff"/>
      <path id="Path_105" data-name="Path 105" d="M-1589.941,1324.8h6.526v2.008h-8.787v-11.7h8.429a2.492,2.492,0,0,1,.117.45c.11,1.524.108,1.525-1.4,1.526h-4.817v2.533h5.661v2.036c-1.61,0-3.19.04-4.767-.017-.788-.028-1.038.246-.978,1C-1589.9,1323.307-1589.941,1323.984-1589.941,1324.8Z" transform="translate(-251.63 -160.961)" fill="#fff"/>
      <path id="Path_106" data-name="Path 106" d="M-1794.277,1315.115h2.453c0,.72,0,1.421,0,2.121,0,1.88.018,3.761-.006,5.641q-.05,3.92-3.939,4.239a9.155,9.155,0,0,1-2.032-.052,3.68,3.68,0,0,1-3.438-3.718c-.142-2.709-.034-5.431-.034-8.217h2.422c0,1.444,0,2.86,0,4.277,0,1.167-.032,2.336.016,3.5a2.094,2.094,0,0,0,2.285,2.224,2.048,2.048,0,0,0,2.268-2.3c.017-2.2.005-4.409.006-6.613Z" transform="translate(-83.224 -160.966)" fill="#fff"/>
      <path id="Path_107" data-name="Path 107" d="M-1493.04,1315.114h2.333v9.638h5.846v2.058h-8.179Z" transform="translate(-331.489 -160.965)" fill="#fff"/>
      <path id="Path_108" data-name="Path 108" d="M-1195.717,1315.081h2.29v11.708h-2.29Z" transform="translate(-570.934 -160.938)" fill="#fff"/>
    </g>
    <rect id="Rectangle_222" data-name="Rectangle 222" width="246" height="80" transform="translate(1393 4759)" fill="none"/>
  </g>
</svg>
