<svg xmlns="http://www.w3.org/2000/svg" width="246" height="80" viewBox="0 0 246 80">
  <g id="Group_267" data-name="Group 267" transform="translate(-1115 -4759)">
    <g id="Group_148" data-name="Group 148" transform="translate(1553.01 4149.985)" opacity="0.6">
      <path id="Path_80" data-name="Path 80" d="M-272.381,661.859a66.651,66.651,0,0,1-8.3-.112,4.08,4.08,0,0,1-2.555-2.348c-1.724-4.493-3.193-9.084-4.753-13.64l-.993-.045c-1.086,3.028-2.206,6.044-3.252,9.086-2.527,7.35-2.513,7.358-10.216,7.056-.516-.02-1.029-.146-2.019-.292,1.486-3.944,2.877-7.627,4.263-11.312,1.671-4.442,3.393-8.867,4.98-13.338a3.366,3.366,0,0,1,3.648-2.542c8.6-.136,8.608-.2,11.666,7.762C-277.475,648.491-275.055,654.858-272.381,661.859Z" transform="translate(-40.416 -0.109)" fill="#fff"/>
      <path id="Path_81" data-name="Path 81" d="M-355.8,661.223a5.461,5.461,0,0,1-.883.461c-8.88.582-8.873.579-11.714-7.729-.949-2.776-1.945-5.536-2.919-8.3l-1.046-.1q-1.341,3.938-2.681,7.877c-.213.627-.42,1.256-.633,1.884-2.381,7.021-3.863,7.788-11.939,5.879,2.279-6.1,4.543-12.165,6.809-18.226.116-.31.265-.608.383-.917,3.264-8.5,3.267-8.528,12.242-7.683a3.229,3.229,0,0,1,2.372,1.276C-362.4,644.11-359.135,652.637-355.8,661.223Z" transform="translate(-12.537)" fill="#fff"/>
      <path id="Path_82" data-name="Path 82" d="M-323.233,661.264c-.526.36-.611.467-.706.477-9.8,1.028-9.8,1.028-9.8-8.688,0-2.436-.194-4.891.048-7.3.314-3.145-.979-4.307-3.948-3.807-3.508.59-4.358-1.007-4.182-4.269.129-2.369.648-3.347,3.2-3.29,6.751.151,13.51.172,20.259,0,3.219-.082,2.869,1.9,2.877,3.915.008,1.942.225,3.706-2.764,3.694-4.956-.019-4.967.154-4.982,5.082C-323.244,651.826-323.233,656.576-323.233,661.264Z" transform="translate(-27.884 -0.123)" fill="#fff"/>
      <path id="Path_83" data-name="Path 83" d="M-411.616,634.428c3.434,0,6.874.128,10.3-.036,3.092-.148,2.663,1.9,2.634,3.755-.029,1.8.58,4.073-2.569,3.78-.439-.041-.895.055-1.327-.013-3.334-.522-4.193,1.089-4.047,4.166.205,4.311-.029,8.64.08,12.958.055,2.173-.754,2.917-2.912,2.867-8.874-.206-7.221,1.1-7.385-6.985a88.892,88.892,0,0,1,.041-8.969c.265-3.25-.994-4.531-4.148-4.022-3.306.534-4.182-.973-4.049-4.1.106-2.5.685-3.634,3.415-3.455C-418.273,634.592-414.939,634.427-411.616,634.428Z" transform="translate(0 -0.115)" fill="#fff"/>
      <path id="Path_84" data-name="Path 84" d="M-172.457,661.486c2.235-3.845,4.212-7.519,6.466-11.015a4.176,4.176,0,0,0-.035-5.112c-2.1-3.357-3.975-6.85-5.966-10.322,4.008-1.068,4.366-.936,6.091,2.3,1.278,2.392,2.525,4.8,4.122,7.838,1.528-2.969,2.877-5.215,3.867-7.61,1.19-2.878,3.08-3.745,6.286-2.7-2.188,3.674-4.46,7.176-6.359,10.87a5.149,5.149,0,0,0-.01,4.1c2,3.9,4.369,7.61,6.745,11.644-3.175.972-5.087.374-6.349-2.542-1.125-2.6-2.685-5.018-4.5-8.337-1.62,3.162-3.089,5.573-4.116,8.159C-167.312,661.51-169,662.533-172.457,661.486Z" transform="translate(-84.68 -0.14)" fill="#fff"/>
      <path id="Path_85" data-name="Path 85" d="M-233.136,634.5c4.683,0,8.97-.072,13.25.076.647.023,1.26,1.07,1.888,1.643-.644.57-1.247,1.561-1.942,1.63a48.892,48.892,0,0,1-6.622.078c-3.108-.114-2.54,2.172-2.519,3.914.021,1.7-.705,4.061,2.421,4a46.006,46.006,0,0,1,5.959.08c.733.081,1.373.989,2.055,1.52-.7.616-1.329,1.628-2.112,1.764a18.783,18.783,0,0,1-4.955.064c-2.678-.258-3.608.98-3.422,3.473.074.989.04,1.988.023,2.982-.032,1.914.79,2.814,2.8,2.721a52.436,52.436,0,0,1,6.954.063c.711.062,1.345.994,2.014,1.528-.693.621-1.363,1.743-2.085,1.778a98.477,98.477,0,0,1-11.26-.023,3.331,3.331,0,0,1-2.344-2.235C-233.2,651.4-233.136,643.229-233.136,634.5Z" transform="translate(-64.33 -0.156)" fill="#fff"/>
      <path id="Path_86" data-name="Path 86" d="M-133.208,657.714a43.893,43.893,0,0,0,5.951,1.095c2.563.126,5.017-.606,5.758-3.442s-1.339-4.2-3.5-5.271c-1.678-.835-3.479-1.443-5.1-2.371a6.748,6.748,0,0,1-3.643-7.511,6.81,6.81,0,0,1,5.767-5.687,29.8,29.8,0,0,1,6.863-.161c2.694.091,3.249,1.375,1.775,3.586-1.9-.229-3.875-.957-5.558-.533s-3.787,1.717-4.356,3.162c-.382.966,1.316,3.2,2.587,4.253,1.389,1.157,3.4,1.535,5.067,2.4,3.612,1.866,5.212,4.912,4.529,8.381a7.956,7.956,0,0,1-7.3,6.223,38.068,38.068,0,0,1-7.261-.226C-133.85,661.352-134.736,660.114-133.208,657.714Z" transform="translate(-97.584 -0.078)" fill="#fff"/>
      <path id="Path_87" data-name="Path 87" d="M-196.593,646.477c0,3.092.084,6.187-.025,9.275-.072,2.041.784,2.765,2.743,2.688a49.413,49.413,0,0,1,6.618.071c.707.068,1.331,1.005,1.994,1.545-.694.619-1.364,1.737-2.086,1.772a97.491,97.491,0,0,1-11.253-.03,3.272,3.272,0,0,1-2.129-2.369q-.251-11.259,0-22.525c.018-.812,1.416-1.593,2.175-2.388.651.784,1.809,1.533,1.866,2.358C-196.467,640.062-196.6,643.273-196.593,646.477Z" transform="translate(-75.158 -0.168)" fill="#fff"/>
      <path id="Path_88" data-name="Path 88" d="M-95.675,648.6c0,3.433.013,6.866-.005,10.3-.008,1.427.235,2.972-2.017,3.034-2.148.058-2.248-1.272-2.246-2.826.009-7.31-.065-14.621.1-21.927a3.439,3.439,0,0,1,1.979-2.556c2.071-.54,2.208,1.119,2.2,2.677C-95.69,641.072-95.676,644.839-95.675,648.6Z" transform="translate(-108.991 -0.171)" fill="#fff"/>
    </g>
    <rect id="Rectangle_219" data-name="Rectangle 219" width="246" height="80" transform="translate(1115 4759)" fill="none"/>
  </g>
</svg>
