<svg xmlns="http://www.w3.org/2000/svg" width="70.5" height="70.5" viewBox="0 0 70.5 70.5">
    <defs>
        <style>
            .cls-1{fill:#4b81ff;stroke:#4b81ff;stroke-width:.5px}
        </style>
    </defs>
    <g id="noun_branding_906659" transform="translate(.25 .25)">
        <g id="Group_379" data-name="Group 379">
            <path id="Path_1773" d="M2.333 2.333h33.834v9.333a1.167 1.167 0 0 0 1.167 1.167h9.333v3.5H49v-4.666c0-.026-.013-.048-.015-.073a1.2 1.2 0 0 0-.06-.3.949.949 0 0 0-.04-.11 1.163 1.163 0 0 0-.229-.342L38.157.342a1.163 1.163 0 0 0-.342-.229l-.108-.038a1.111 1.111 0 0 0-.3-.059.722.722 0 0 0-.074-.016H1.167A1.167 1.167 0 0 0 0 1.167v67.666A1.167 1.167 0 0 0 1.167 70h17.5v-2.333H2.333zM45.017 10.5H38.5V3.983z" class="cls-1" data-name="Path 1773"/>
            <path id="Path_1774" d="M63.833 16H31.167A1.167 1.167 0 0 0 30 17.167v18.666A1.167 1.167 0 0 0 31.167 37h32.666A1.167 1.167 0 0 0 65 35.833V17.167A1.167 1.167 0 0 0 63.833 16zm-1.166 18.667H32.333V18.333h30.334z" class="cls-1" data-name="Path 1774" transform="translate(5 2.667)"/>
            <path id="Path_1775" d="M65.833 36H19.167A1.167 1.167 0 0 0 18 37.167v25.666A1.167 1.167 0 0 0 19.167 64h46.666A1.167 1.167 0 0 0 67 62.833V37.167A1.167 1.167 0 0 0 65.833 36zM61.8 38.333L43.637 49.805 23.559 38.333zM20.333 61.667v-22.49l22.755 13a1.167 1.167 0 0 0 1.2-.026l20.379-12.867v22.383z" class="cls-1" data-name="Path 1775" transform="translate(3 6)"/>
            <path id="Rectangle_313" d="M0 0h6v2H0z" class="cls-1" data-name="Rectangle 313" transform="translate(58 26)"/>
            <path id="Rectangle_314" d="M0 0h13v3H0z" class="cls-1" data-name="Rectangle 314" transform="translate(51 30)"/>
            <path id="Path_1776" d="M38.5 29a3.5 3.5 0 1 0-3.5-3.5 3.5 3.5 0 0 0 3.5 3.5zm0-4.667a1.167 1.167 0 1 1-1.167 1.167 1.169 1.169 0 0 1 1.167-1.167z" class="cls-1" data-name="Path 1776" transform="translate(5.833 3.667)"/>
            <path id="Rectangle_315" d="M0 0h7v2H0z" class="cls-1" data-name="Rectangle 315" transform="translate(7 7)"/>
            <path id="Rectangle_316" d="M0 0h22v2H0z" class="cls-1" data-name="Rectangle 316" transform="translate(7 13)"/>
            <path id="Rectangle_317" d="M0 0h14v2H0z" class="cls-1" data-name="Rectangle 317" transform="translate(7 21)"/>
            <path id="Rectangle_318" d="M0 0h22v2H0z" class="cls-1" data-name="Rectangle 318" transform="translate(7 28)"/>
            <path id="Rectangle_319" d="M0 0h22v2H0z" class="cls-1" data-name="Rectangle 319" transform="translate(7 35)"/>
            <path id="Rectangle_320" d="M0 0h11v2H0z" class="cls-1" data-name="Rectangle 320" transform="translate(7 42)"/>
            <path id="Rectangle_321" d="M0 0h11v2H0z" class="cls-1" data-name="Rectangle 321" transform="translate(7 49)"/>
            <path id="Rectangle_322" d="M0 0h11v2H0z" class="cls-1" data-name="Rectangle 322" transform="translate(7 56)"/>
        </g>
    </g>
</svg>
