<svg xmlns="http://www.w3.org/2000/svg" width="67.486" height="71.8" viewBox="0 0 67.486 71.8">
    <defs>
        <style>
            .cls-1{fill:#4b81ff}
        </style>
    </defs>
    <g id="noun_Research_2569071" transform="translate(-4.701 -1)">
        <path id="Path_1762" d="M57.068 41.8a17.924 17.924 0 0 0-17.84 16.67v.146h-.585A1.232 1.232 0 0 0 37.4 59.86a1.248 1.248 0 0 0 1.243 1.24h.585v.146A17.881 17.881 0 0 0 67.6 74.337l.512-.366 9.14 9.14a2.1 2.1 0 0 0 1.535.658 1.991 1.991 0 0 0 1.535-.658 2.1 2.1 0 0 0 .658-1.535 1.991 1.991 0 0 0-.658-1.535l-9.066-9.286.366-.512a18.774 18.774 0 0 0 2.705-5.411v-.073h.8a1.243 1.243 0 0 0 0-2.486h-.219v-.146A17.985 17.985 0 0 0 57.068 41.8zm14.4 23.1a14.814 14.814 0 0 1-3.583 5.63 15.283 15.283 0 0 1-26.025-9.281V61.1l6.434.146a1.3 1.3 0 0 0 1.17-.731l2.852-6.727 2.852 16.378a1.244 1.244 0 0 0 1.1 1.024 1.279 1.279 0 0 0 1.316-.731l4.387-9.651 1.828 3.29a1.359 1.359 0 0 0 1.1.658h6.727zm.658-2.778v.078h-6.649l-2.632-4.826a1.359 1.359 0 0 0-1.1-.658 1.28 1.28 0 0 0-1.1.731l-3.729 8.262L54 49.185a1.244 1.244 0 0 0-1.1-1.024 1.279 1.279 0 0 0-1.316.731l-4.094 9.871h-.073l-5.557-.146v-.147a15.259 15.259 0 1 1 30.27 3.656z" class="cls-1" data-name="Path 1762" transform="translate(-8.791 -10.969)"/>
        <path id="Path_1763" d="M32.119 72.727H6.089A1.388 1.388 0 0 1 4.7 71.338V2.389A1.388 1.388 0 0 1 6.089 1H49.74a1.39 1.39 0 0 1 .951.366l12.648 12.356a1.328 1.328 0 0 1 .439 1.024v12.649a1.388 1.388 0 0 1-1.389 1.389A1.344 1.344 0 0 1 61 27.395V15.331L49.155 3.778H7.405v66.17h24.64a1.388 1.388 0 0 1 1.389 1.389 1.287 1.287 0 0 1-1.315 1.39z" class="cls-1" data-name="Path 1763"/>
        <path id="Path_1764" d="M19.009 32.217h29.173a1.609 1.609 0 0 0 0-3.217H19.009a1.609 1.609 0 1 0 0 3.217z" class="cls-1" data-name="Path 1764" transform="translate(-3.414 -7.527)"/>
        <path id="Path_1765" d="M19.209 20.117h29.173a1.609 1.609 0 0 0 0-3.217H19.209a1.623 1.623 0 0 0-1.609 1.609 1.577 1.577 0 0 0 1.609 1.608z" class="cls-1" data-name="Path 1765" transform="translate(-3.468 -4.275)"/>
        <path id="Path_1766" d="M19.209 44.517h17.036a1.609 1.609 0 0 0 0-3.217H19.209a1.609 1.609 0 1 0 0 3.217z" class="cls-1" data-name="Path 1766" transform="translate(-3.468 -10.834)"/>
        <path id="Path_1767" d="M29.784 57.317H19.109a1.609 1.609 0 1 1 0-3.217h10.675a1.609 1.609 0 0 1 0 3.217z" class="cls-1" data-name="Path 1767" transform="translate(-3.441 -14.275)"/>
    </g>
</svg>
