<svg xmlns="http://www.w3.org/2000/svg" xmlns:xlink="http://www.w3.org/1999/xlink" width="91" height="79" viewBox="0 0 91 79"><defs><style>.a{fill:#fff;stroke:#707070;}.b,.c,.g{fill:none;}.c{stroke:#fff;stroke-width:2px;}.d{clip-path:url(#a);}.e,.f{stroke:none;}.f{fill:#551a92;}</style><clipPath id="a"><rect class="a" width="61" height="47" transform="translate(915 1883)"/></clipPath></defs><g transform="translate(-885 -1883)"><g class="b" transform="translate(885 1897)"><path class="e" d="M32.5,0A32.5,32.5,0,1,1,0,32.5,32.5,32.5,0,0,1,32.5,0Z"/><path class="f" d="M 32.5 2 C 28.38164901733398 2 24.38753890991211 2.806140899658203 20.62863922119141 4.396018981933594 C 16.9969596862793 5.932090759277344 13.73495864868164 8.13153076171875 10.9332389831543 10.9332389831543 C 8.13153076171875 13.73495864868164 5.932090759277344 16.9969596862793 4.396018981933594 20.62863922119141 C 2.806140899658203 24.38753890991211 2 28.38164901733398 2 32.5 C 2 36.61834716796875 2.806140899658203 40.61245727539063 4.396018981933594 44.37136077880859 C 5.932090759277344 48.0030403137207 8.13153076171875 51.26504135131836 10.9332389831543 54.0667610168457 C 13.73495864868164 56.86846923828125 16.9969596862793 59.06790924072266 20.62863922119141 60.60398101806641 C 24.38753890991211 62.1938591003418 28.38164901733398 63 32.5 63 C 36.61834716796875 63 40.61245727539063 62.1938591003418 44.37136077880859 60.60398101806641 C 48.0030403137207 59.06790924072266 51.26504135131836 56.86846923828125 54.0667610168457 54.0667610168457 C 56.86846923828125 51.26504135131836 59.06790924072266 48.0030403137207 60.60398101806641 44.37136077880859 C 62.1938591003418 40.61245727539063 63 36.61834716796875 63 32.5 C 63 28.38164901733398 62.1938591003418 24.38753890991211 60.60398101806641 20.62863922119141 C 59.06790924072266 16.9969596862793 56.86846923828125 13.73495864868164 54.0667610168457 10.9332389831543 C 51.26504135131836 8.13153076171875 48.0030403137207 5.932090759277344 44.37136077880859 4.396018981933594 C 40.61245727539063 2.806140899658203 36.61834716796875 2 32.5 2 M 32.5 0 C 50.44924926757813 0 65 14.55075073242188 65 32.5 C 65 50.44924926757813 50.44924926757813 65 32.5 65 C 14.55075073242188 65 0 50.44924926757813 0 32.5 C 0 14.55075073242188 14.55075073242188 0 32.5 0 Z"/></g><path class="c" d="M8312,929l8.5,10.623-8.5,10.623" transform="translate(-7385.5 990.5)"/><path class="c" d="M-4535,16420.539h36" transform="translate(5434 -14490.039)"/><g class="d"><g class="c" transform="translate(885 1897)"><circle class="e" cx="32.5" cy="32.5" r="32.5"/><circle class="g" cx="32.5" cy="32.5" r="31.5"/></g></g></g></svg>