<svg xmlns="http://www.w3.org/2000/svg" xmlns:xlink="http://www.w3.org/1999/xlink" width="1414.132" height="1798.878" viewBox="0 0 1414.132 1798.878"><defs><style>.a{opacity:0.32;fill:url(#a);}.b,.c{stroke:none;}.c{fill:#707070;}</style><linearGradient id="a" x1="0.5" x2="0.5" y2="1" gradientUnits="objectBoundingBox"><stop offset="0" stop-color="#ff24e2"/><stop offset="1" stop-color="#8a029b"/></linearGradient></defs><g class="a" transform="translate(-27.9 260.772)"><path class="b" d="M 736.2400512695313 1537.60595703125 C 719.1309204101563 1537.60595703125 702.0153198242188 1537.123901367188 685.3685302734375 1536.173461914063 C 668.7222290039063 1535.223022460938 652.075927734375 1533.777221679688 635.8917846679688 1531.876342773438 C 619.7081298828125 1529.975463867188 603.5309448242188 1527.56591796875 587.8094482421875 1524.71484375 C 572.0885620117188 1521.863525390625 556.3803100585938 1518.490478515625 541.1213989257813 1514.68896484375 C 525.8629150390625 1510.887451171875 510.6235656738281 1506.550415039063 495.8272399902344 1501.798706054688 C 481.0309448242188 1497.047241210938 466.260498046875 1491.74658203125 451.9261474609375 1486.044555664063 C 437.592041015625 1480.342651367188 423.290283203125 1474.078491210938 409.4181213378906 1467.426391601563 C 395.5459289550781 1460.77392578125 381.7126770019531 1453.546142578125 368.3024597167969 1445.943481445313 C 354.8920288085938 1438.340698242188 341.6744079589844 1430.256103515625 329.0166015625 1421.914428710938 C 316.3589782714844 1413.572631835938 303.9044189453125 1404.738891601563 291.9994201660156 1395.658325195313 C 280.0942077636719 1386.57763671875 268.4031066894531 1376.994384765625 257.2505187988281 1367.1748046875 C 246.097900390625 1357.355224609375 235.1698608398438 1347.022827148438 224.7696380615234 1336.464111328125 C 214.3694152832031 1325.905639648438 204.2039794921875 1314.823486328125 194.55615234375 1303.525634765625 C 184.9081115722656 1292.22802734375 175.5057220458984 1280.396362304688 166.6098480224609 1268.359130859375 C 157.7139892578125 1256.322021484375 149.0742034912109 1243.740478515625 140.9305114746094 1230.964111328125 C 132.7868194580078 1218.187377929688 124.9096374511719 1204.85595703125 117.5181198120117 1191.33984375 C 110.126594543457 1177.82421875 103.0996398925781 1163.863525390625 96.63202667236328 1149.846069335938 C 90.16442108154297 1135.828491210938 84.07420349121094 1121.359375 78.53050994873047 1106.840209960938 C 72.98680877685547 1092.320922851563 67.83354949951172 1077.342651367188 63.21376800537109 1062.321533203125 C 58.59376907348633 1047.30029296875 54.37724685668945 1031.813110351563 50.68137741088867 1016.2900390625 C 46.98529052734375 1000.766540527344 43.70572662353516 984.77001953125 40.93355178833008 968.7450561523438 C 38.161376953125 952.7193603515625 35.81876754760742 936.2135009765625 33.97072601318359 919.6860961914063 C 32.12246322631836 903.1580810546875 30.71681213378906 886.1428833007813 29.79268074035645 869.1130981445313 C 28.86855125427246 852.0828857421875 28.40007209777832 834.55810546875 28.40007209777832 817.02587890625 L 28.40007209777832 -105.3447494506836 C 28.40007209777832 -116.3034439086914 29.36159515380859 -126.9612655639648 31.25789833068848 -137.0223541259766 C 33.15354919433594 -147.0801849365234 36.03702926635742 -156.8251800537109 39.82789993286133 -165.9867095947266 C 43.61876678466797 -175.1477966308594 48.42398452758789 -183.9841003417969 54.11029052734375 -192.2503967285156 C 59.79789733886719 -200.5186614990234 66.5274658203125 -208.4499664306641 74.11224365234375 -215.8240966796875 C 81.69638061523438 -223.1975708007813 89.92115783691406 -229.73974609375 98.55767822265625 -235.2693176269531 C 107.1937713623047 -240.7984466552734 116.485725402832 -245.4710540771484 126.17529296875 -249.1573486328125 C 135.8665924072266 -252.8443145751953 146.2296447753906 -255.6484375 156.9761657714844 -257.4923706054688 C 167.7265930175781 -259.3367004394531 179.1641998291016 -260.2719116210938 190.970947265625 -260.2719116210938 C 201.0833282470703 -260.2719116210938 211.0170288085938 -259.3373413085938 220.4959411621094 -257.4943237304688 C 229.9731140136719 -255.6514892578125 239.2631225585938 -252.8484497070313 248.1083374023438 -249.1630096435547 C 256.9541931152344 -245.4773559570313 265.6048583984375 -240.8049621582031 273.8198547363281 -235.2756195068359 C 282.0374755859375 -229.7445220947266 290.0509338378906 -223.2001800537109 297.6379089355469 -215.8240966796875 C 305.2226867675781 -208.4499664306641 311.9522399902344 -200.5186614990234 317.6398620605469 -192.2503967285156 C 323.326171875 -183.9841003417969 328.1313781738281 -175.1477966308594 331.9222412109375 -165.9867095947266 C 335.7131042480469 -156.8251800537109 338.5965881347656 -147.0801849365234 340.4922485351563 -137.0223541259766 C 342.3885498046875 -126.9612655639648 343.3500671386719 -116.3034439086914 343.3500671386719 -105.3447494506836 L 343.3500671386719 817.02587890625 C 343.3500671386719 837.333740234375 344.4763793945313 857.3648071289063 346.6976928710938 876.5630493164063 C 348.919189453125 895.7628784179688 352.29833984375 914.6702270507813 356.7416076660156 932.760009765625 C 361.1848449707031 950.8511352539063 366.8174743652344 968.6339721679688 373.48291015625 985.6146240234375 C 380.1483459472656 1002.595703125 388.0342102050781 1019.252868652344 396.9216003417969 1035.123046875 C 405.8083190917969 1050.9921875 415.5983276367188 1066.146606445313 426.0196228027344 1080.1650390625 C 436.4415893554688 1094.1845703125 447.7887573242188 1107.462890625 459.7455139160156 1119.63134765625 C 471.7026672363281 1131.800048828125 484.6061706542969 1143.201293945313 498.097900390625 1153.518310546875 C 511.5892028808594 1163.835205078125 526.04833984375 1173.358520507813 541.0737915039063 1181.823486328125 C 556.0972290039063 1190.287475585938 571.62744140625 1197.7978515625 587.2333374023438 1204.145874023438 C 602.8396606445313 1210.494384765625 618.961181640625 1215.859130859375 635.149658203125 1220.091552734375 C 651.338134765625 1224.32373046875 668.0494384765625 1227.542602539063 684.8196411132813 1229.65869140625 C 701.5889892578125 1231.774780273438 718.889404296875 1232.84765625 736.2400512695313 1232.84765625 C 754.43505859375 1232.84765625 772.591796875 1231.774780273438 790.2055053710938 1229.6591796875 C 807.8198852539063 1227.543334960938 825.387451171875 1224.324829101563 842.4202880859375 1220.093139648438 C 859.4533081054688 1215.861083984375 876.43115234375 1210.496948242188 892.8820190429688 1204.1494140625 C 909.3327026367188 1197.8017578125 925.7198486328125 1190.292236328125 941.588134765625 1181.828979492188 C 957.4585571289063 1173.364868164063 972.7479248046875 1163.842407226563 987.0316162109375 1153.526611328125 C 1001.315734863281 1143.210205078125 1014.996398925781 1131.809814453125 1027.693359375 1119.641723632813 C 1040.390014648438 1107.47412109375 1052.4609375 1094.1962890625 1063.570556640625 1080.17724609375 C 1074.67919921875 1066.158935546875 1085.1396484375 1051.005004882813 1094.660888671875 1035.135864257813 C 1104.183349609375 1019.265258789063 1112.632934570313 1002.607666015625 1119.77490234375 985.6256713867188 C 1126.916625976563 968.6441650390625 1132.951782226563 950.8602294921875 1137.712890625 932.76806640625 C 1142.473754882813 914.677001953125 1146.094604492188 895.768310546875 1148.474853515625 876.5670166015625 C 1150.855102539063 857.3676147460938 1152.061767578125 837.3350219726563 1152.061767578125 817.02587890625 L 1152.061767578125 -105.3447494506836 C 1152.061767578125 -116.7319183349609 1152.863525390625 -127.7438735961914 1154.44482421875 -138.0745239257813 C 1156.025268554688 -148.4010467529297 1158.429443359375 -158.3380126953125 1161.58984375 -167.6091003417969 C 1164.749633789063 -176.8773498535156 1168.75439453125 -185.74169921875 1173.493286132813 -193.9560546875 C 1178.231811523438 -202.1693115234375 1183.838134765625 -209.9647521972656 1190.156372070313 -217.1253967285156 C 1196.471557617188 -224.2827911376953 1203.462524414063 -230.6334381103516 1210.934692382813 -236.0006103515625 C 1218.406127929688 -241.3673553466797 1226.570068359375 -245.9027862548828 1235.199584960938 -249.4810485839844 C 1243.83203125 -253.0601806640625 1253.174194335938 -255.7827911376953 1262.966552734375 -257.5727844238281 C 1272.764404296875 -259.3638916015625 1283.289184570313 -260.2719116210938 1294.248779296875 -260.2719116210938 C 1305.208740234375 -260.2719116210938 1315.787475585938 -259.3636474609375 1325.691162109375 -257.5725708007813 C 1335.590454101563 -255.7823486328125 1345.094360351563 -253.0593109130859 1353.93896484375 -249.4793090820313 C 1362.781372070313 -245.9001770019531 1371.214477539063 -241.3634490966797 1379.004028320313 -235.9949645996094 C 1386.79443359375 -230.6260528564453 1394.161376953125 -224.2732238769531 1400.89990234375 -217.1136627197266 C 1407.6396484375 -209.9525756835938 1413.61962890625 -202.1571350097656 1418.674194335938 -193.9436645507813 C 1423.728515625 -185.7301788330078 1428.000122070313 -176.86669921875 1431.3701171875 -167.5995330810547 C 1434.74072265625 -158.3299713134766 1437.3046875 -148.39453125 1438.990234375 -138.0695343017578 C 1440.6767578125 -127.7404022216797 1441.531860351563 -116.7301788330078 1441.531860351563 -105.3447494506836 L 1441.531860351563 817.02587890625 C 1441.531860351563 834.55810546875 1441.063354492188 852.0828857421875 1440.13916015625 869.1130981445313 C 1439.215087890625 886.1428833007813 1437.809448242188 903.1580810546875 1435.961181640625 919.6860961914063 C 1434.113159179688 936.2135009765625 1431.7705078125 952.7193603515625 1428.998291015625 968.7450561523438 C 1426.226196289063 984.77001953125 1422.946655273438 1000.766540527344 1419.25048828125 1016.2900390625 C 1415.5546875 1031.813110351563 1411.338134765625 1047.30029296875 1406.718139648438 1062.321533203125 C 1402.098388671875 1077.342651367188 1396.945068359375 1092.320922851563 1391.4013671875 1106.840209960938 C 1385.857666015625 1121.359375 1379.767456054688 1135.828491210938 1373.2998046875 1149.846069335938 C 1366.832275390625 1163.863525390625 1359.805297851563 1177.82421875 1352.413818359375 1191.33984375 C 1345.022216796875 1204.856079101563 1337.151611328125 1218.187622070313 1329.02099609375 1230.96435546875 C 1320.890502929688 1243.740844726563 1312.270751953125 1256.322631835938 1303.401123046875 1268.35986328125 C 1294.531860351563 1280.39697265625 1285.162719726563 1292.228759765625 1275.55419921875 1303.526611328125 C 1265.945922851563 1314.824340820313 1255.827514648438 1325.906616210938 1245.479858398438 1336.465087890625 C 1235.132446289063 1347.023681640625 1224.264404296875 1357.356323242188 1213.177856445313 1367.175903320313 C 1202.091186523438 1376.995483398438 1190.473754882813 1386.578735351563 1178.64794921875 1395.6591796875 C 1166.82177734375 1404.739868164063 1154.454467773438 1413.57373046875 1141.88916015625 1421.915283203125 C 1129.32373046875 1430.257202148438 1116.206420898438 1438.341552734375 1102.901611328125 1445.9443359375 C 1089.597290039063 1453.546997070313 1075.864379882813 1460.774658203125 1062.084838867188 1467.4267578125 C 1048.305297851563 1474.078979492188 1034.090698242188 1480.343139648438 1019.8359375 1486.045043945313 C 1005.581176757813 1491.746948242188 990.8843994140625 1497.047485351563 976.1544189453125 1501.798950195313 C 961.4240112304688 1506.550659179688 946.2453002929688 1510.8876953125 931.0396118164063 1514.68896484375 C 915.8335571289063 1518.490478515625 900.1724853515625 1521.86376953125 884.490966796875 1524.71484375 C 868.8092041015625 1527.56591796875 852.6657104492188 1529.975463867188 836.508544921875 1531.876342773438 C 820.3509521484375 1533.777221679688 803.724609375 1535.223022460938 787.0916137695313 1536.173461914063 C 770.4581298828125 1537.123901367188 753.3491821289063 1537.60595703125 736.2400512695313 1537.60595703125 Z"/><path class="c" d="M 190.970947265625 -259.7720947265625 C 179.1925048828125 -259.7720947265625 167.783447265625 -258.83935546875 157.0606689453125 -256.9996337890625 C 146.345947265625 -255.161376953125 136.014404296875 -252.365478515625 126.35302734375 -248.6900634765625 C 116.6954345703125 -245.0159912109375 107.434326171875 -240.35888671875 98.8272705078125 -234.8482666015625 C 90.2188720703125 -229.3369140625 82.020751953125 -222.8155517578125 74.460693359375 -215.4654541015625 C 66.8995361328125 -208.1143798828125 60.191162109375 -200.208251953125 54.5220947265625 -191.967041015625 C 48.855712890625 -183.7296142578125 44.0672607421875 -174.92431640625 40.289794921875 -165.7957763671875 C 36.5120849609375 -156.665771484375 33.638427734375 -146.953857421875 31.7491455078125 -136.9298095703125 C 29.858642578125 -126.899169921875 28.9000244140625 -116.2725830078125 28.9000244140625 -105.3448486328125 L 28.9000244140625 817.026123046875 C 28.9000244140625 834.5492553710938 29.368408203125 852.064697265625 30.2921142578125 869.0860595703125 C 31.2154541015625 886.1065673828125 32.6204833984375 903.1119995117188 34.467529296875 919.630615234375 C 36.3145751953125 936.1481323242188 38.65576171875 952.643798828125 41.4261474609375 968.6597290039063 C 44.1966552734375 984.6746826171875 47.473876953125 1000.660888671875 51.16748046875 1016.174072265625 C 54.8612060546875 1031.686767578125 59.0748291015625 1047.16357421875 63.69140625 1062.174560546875 C 68.3079833984375 1077.185180664063 73.457763671875 1092.152709960938 78.99755859375 1106.661743164063 C 84.537353515625 1121.17041015625 90.623046875 1135.629272460938 97.0859375 1149.636474609375 C 103.5487060546875 1163.643798828125 110.5706787109375 1177.593994140625 117.9566650390625 1191.099975585938 C 125.343017578125 1204.606079101563 133.21435546875 1217.927856445313 141.352294921875 1230.695190429688 C 149.48974609375 1243.462036132813 158.123046875 1256.034057617188 167.0120849609375 1268.06201171875 C 175.9007568359375 1280.089477539063 185.2958984375 1291.911987304688 194.9364013671875 1303.201049804688 C 204.57666015625 1314.48974609375 214.73388671875 1325.563110351563 225.125732421875 1336.113159179688 C 235.5177001953125 1346.663330078125 246.4371337890625 1356.987915039063 257.5809326171875 1366.799438476563 C 268.724853515625 1376.611328125 280.4068603515625 1386.18701171875 292.302490234375 1395.260620117188 C 304.19873046875 1404.334228515625 316.6434326171875 1413.161499023438 329.2916259765625 1421.496826171875 C 341.9403076171875 1429.832397460938 355.1484375 1437.9111328125 368.549072265625 1445.50830078125 C 381.9493408203125 1453.10546875 395.7725830078125 1460.327880859375 409.6343994140625 1466.975219726563 C 423.4962158203125 1473.622680664063 437.7874755859375 1479.882202148438 452.1109619140625 1485.579956054688 C 466.434814453125 1491.277709960938 481.194580078125 1496.574462890625 495.9800415039063 1501.322631835938 C 510.7659301757813 1506.071044921875 525.9945678710938 1510.40478515625 541.2423095703125 1514.20361328125 C 556.49072265625 1518.00244140625 572.188232421875 1521.373291015625 587.89892578125 1524.22265625 C 603.6100463867188 1527.072021484375 619.77685546875 1529.480224609375 635.9500122070313 1531.379760742188 C 652.1243286132813 1533.279541015625 668.7607421875 1534.724243164063 685.3970947265625 1535.67431640625 C 702.0343627929688 1536.624267578125 719.1405029296875 1537.105834960938 736.2400512695313 1537.105834960938 C 753.339599609375 1537.105834960938 770.4389038085938 1536.624267578125 787.06298828125 1535.67431640625 C 803.6861572265625 1534.724243164063 820.3023071289063 1533.279541015625 836.4500122070313 1531.379760742188 C 852.5968627929688 1529.480224609375 868.7300415039063 1527.072265625 884.401611328125 1524.22265625 C 900.0723266601563 1521.37353515625 915.7227783203125 1518.002685546875 930.918212890625 1514.203857421875 C 946.1129760742188 1510.405151367188 961.2811279296875 1506.0712890625 976.0009765625 1501.323120117188 C 990.72021484375 1496.574951171875 1005.405944824219 1491.2783203125 1019.650268554688 1485.58056640625 C 1033.894287109375 1479.882934570313 1048.09814453125 1473.62353515625 1061.867553710938 1466.976318359375 C 1075.636596679688 1460.329223632813 1089.359130859375 1453.10693359375 1102.653442382813 1445.510131835938 C 1115.94873046875 1437.912841796875 1129.056396484375 1429.834228515625 1141.612548828125 1421.49853515625 C 1154.168212890625 1413.163330078125 1166.526123046875 1404.336303710938 1178.34326171875 1395.262451171875 C 1190.159790039063 1386.189086914063 1201.768188476563 1376.613403320313 1212.84619140625 1366.801513671875 C 1223.924072265625 1356.98974609375 1234.783447265625 1346.665405273438 1245.122802734375 1336.114990234375 C 1255.4619140625 1325.564697265625 1265.572265625 1314.491333007813 1275.173217773438 1303.202392578125 C 1284.774169921875 1291.91357421875 1294.135986328125 1280.0908203125 1302.998413085938 1268.063110351563 C 1311.861450195313 1256.034912109375 1320.474609375 1243.462890625 1328.59912109375 1230.69580078125 C 1336.723876953125 1217.928344726563 1344.588623046875 1204.606323242188 1351.97509765625 1191.099975585938 C 1359.360961914063 1177.593994140625 1366.382934570313 1163.643798828125 1372.845703125 1149.636474609375 C 1379.308715820313 1135.629272460938 1385.394287109375 1121.17041015625 1390.93408203125 1106.661743164063 C 1396.473876953125 1092.152709960938 1401.623657226563 1077.184936523438 1406.240234375 1062.174560546875 C 1410.857055664063 1047.16357421875 1415.070678710938 1031.686767578125 1418.76416015625 1016.174072265625 C 1422.457763671875 1000.660888671875 1425.735229492188 984.6746826171875 1428.505493164063 968.6597290039063 C 1431.276000976563 952.643798828125 1433.617309570313 936.1481323242188 1435.46435546875 919.630615234375 C 1437.311401367188 903.1119995117188 1438.716430664063 886.1065673828125 1439.639770507813 869.0860595703125 C 1440.5634765625 852.064697265625 1441.031860351563 834.5492553710938 1441.031860351563 817.026123046875 L 1441.031860351563 -105.3448486328125 C 1441.031860351563 -116.7034912109375 1440.178955078125 -127.6864013671875 1438.496826171875 -137.9891357421875 C 1436.816162109375 -148.283203125 1434.26025390625 -158.188232421875 1430.900024414063 -167.4287109375 C 1427.541625976563 -176.6641845703125 1423.285034179688 -185.4970703125 1418.248168945313 -193.681884765625 C 1413.211669921875 -201.866455078125 1407.252075195313 -209.634765625 1400.535766601563 -216.77099609375 C 1393.821411132813 -223.905029296875 1386.481567382813 -230.234375 1378.72021484375 -235.58349609375 C 1370.960693359375 -240.93115234375 1362.559814453125 -245.45068359375 1353.751220703125 -249.0162353515625 C 1344.9384765625 -252.583251953125 1335.4677734375 -255.296630859375 1325.60205078125 -257.0806884765625 C 1315.727783203125 -258.86669921875 1305.178955078125 -259.7720947265625 1294.248657226563 -259.7720947265625 C 1283.319091796875 -259.7720947265625 1272.824584960938 -258.86669921875 1263.056396484375 -257.0811767578125 C 1253.298706054688 -255.29736328125 1243.99072265625 -252.5850830078125 1235.39111328125 -249.0194091796875 C 1226.796875 -245.4559326171875 1218.666870117188 -240.9390869140625 1211.226440429688 -235.5948486328125 C 1203.784790039063 -230.2493896484375 1196.82177734375 -223.9241943359375 1190.531127929688 -216.7947998046875 C 1184.235107421875 -209.658935546875 1178.648193359375 -201.8909912109375 1173.926391601563 -193.7061767578125 C 1169.20361328125 -185.52001953125 1165.212280273438 -176.685546875 1162.063232421875 -167.44775390625 C 1158.912109375 -158.20458984375 1156.515014648438 -148.29638671875 1154.939086914063 -137.9989013671875 C 1153.361572265625 -127.6932373046875 1152.561889648438 -116.7066650390625 1152.561889648438 -105.3448486328125 L 1152.561889648438 817.026123046875 C 1152.561889648438 837.3555908203125 1151.353637695313 857.4088134765625 1148.97119140625 876.6285400390625 C 1146.588012695313 895.8519897460938 1142.963012695313 914.78271484375 1138.196411132813 932.8953857421875 C 1133.429321289063 951.0101318359375 1127.386352539063 968.8165283203125 1120.235717773438 985.8197021484375 C 1113.084594726563 1002.823364257813 1104.624145507813 1019.502197265625 1095.089599609375 1035.393310546875 C 1085.55712890625 1051.280883789063 1075.084350585938 1066.45263671875 1063.962280273438 1080.487915039063 C 1052.838623046875 1094.524536132813 1040.752563476563 1107.819213867188 1028.039306640625 1120.0029296875 C 1015.325500488281 1132.186767578125 1001.627075195313 1143.60205078125 987.3240966796875 1153.932006835938 C 973.0223388671875 1164.261108398438 957.7136840820313 1173.79541015625 941.8234252929688 1182.270141601563 C 925.9370727539063 1190.742919921875 909.5313720703125 1198.261108398438 893.0620727539063 1204.615600585938 C 876.5918579101563 1210.970825195313 859.5938720703125 1216.34130859375 842.5409545898438 1220.578125 C 825.4879760742188 1224.814697265625 807.8997802734375 1228.036987304688 790.2650146484375 1230.155395507813 C 772.6316528320313 1232.273559570313 754.4550170898438 1233.347412109375 736.2400512695313 1233.347412109375 C 718.8684692382813 1233.347412109375 701.5470581054688 1232.273071289063 684.757080078125 1230.154663085938 C 667.9652709960938 1228.035888671875 651.2325439453125 1224.812866210938 635.023193359375 1220.5751953125 C 618.8136596679688 1216.33740234375 602.67138671875 1210.965576171875 587.0447998046875 1204.609008789063 C 571.4195556640625 1198.2529296875 555.8700561523438 1190.7333984375 540.8281860351563 1182.259033203125 C 525.7825317382813 1173.78271484375 511.3036499023438 1164.24658203125 497.7938842773438 1153.915649414063 C 484.28369140625 1143.584228515625 471.3623046875 1132.167236328125 459.388671875 1119.981811523438 C 447.4159545898438 1107.797241210938 436.053955078125 1094.501342773438 425.6181640625 1080.46337890625 C 415.184326171875 1066.427734375 405.382568359375 1051.255126953125 396.4854736328125 1035.367431640625 C 387.5870361328125 1019.477416992188 379.691162109375 1002.799682617188 373.017333984375 985.7974853515625 C 366.3438720703125 968.7960815429688 360.70458984375 950.9920043945313 356.2559814453125 932.8795166015625 C 351.8077392578125 914.769287109375 348.4248046875 895.841064453125 346.200927734375 876.62060546875 C 343.9775390625 857.4033203125 342.8499755859375 837.3529052734375 342.8499755859375 817.026123046875 L 342.8499755859375 -105.3448486328125 C 342.8499755859375 -116.2725830078125 341.891357421875 -126.899169921875 340.0009765625 -136.9298095703125 C 338.111572265625 -146.953857421875 335.238037109375 -156.665771484375 331.460205078125 -165.7957763671875 C 327.6827392578125 -174.92431640625 322.8944091796875 -183.7296142578125 317.22802734375 -191.967041015625 C 311.558837890625 -200.208251953125 304.8504638671875 -208.1143798828125 297.289306640625 -215.4654541015625 C 289.7236328125 -222.8209228515625 281.7333984375 -229.346435546875 273.540771484375 -234.8609619140625 C 265.35302734375 -240.371826171875 256.7315673828125 -245.0284423828125 247.9158935546875 -248.70166015625 C 239.10205078125 -252.3741455078125 229.8443603515625 -255.1673583984375 220.4005126953125 -257.003662109375 C 210.9527587890625 -258.8406982421875 201.0513916015625 -259.7720947265625 190.970947265625 -259.7720947265625 M 190.970947265625 -260.7720947265625 C 231.7386474609375 -260.7720947265625 267.4105224609375 -245.908935546875 297.9864501953125 -216.1824951171875 C 328.562255859375 -186.4556884765625 343.8499755859375 -149.509765625 343.8499755859375 -105.3448486328125 L 343.8499755859375 817.026123046875 C 343.8499755859375 898.5615234375 361.6859130859375 971.1792602539063 397.3580322265625 1034.878784179688 C 433.029541015625 1098.57861328125 481.0166015625 1147.414672851563 541.3191528320313 1181.387939453125 C 601.6213989257813 1215.361083984375 666.5950317382813 1232.347412109375 736.2400512695313 1232.347412109375 C 809.2821044921875 1232.347412109375 877.6530151367188 1215.361083984375 941.352783203125 1181.387939453125 C 1005.052307128906 1147.414672851563 1056.012329101563 1098.57861328125 1094.232055664063 1034.878784179688 C 1132.451904296875 971.1792602539063 1151.561889648438 898.5615234375 1151.561889648438 817.026123046875 L 1151.561889648438 -105.3448486328125 C 1151.561889648438 -151.208740234375 1164.301391601563 -188.578857421875 1189.781372070313 -217.4564208984375 C 1215.26123046875 -246.333251953125 1250.083618164063 -260.7720947265625 1294.248657226563 -260.7720947265625 C 1338.413940429688 -260.7720947265625 1374.085693359375 -246.333251953125 1401.263916015625 -217.4564208984375 C 1428.442504882813 -188.578857421875 1442.031860351563 -151.208740234375 1442.031860351563 -105.3448486328125 L 1442.031860351563 817.026123046875 C 1442.031860351563 958.0145263671875 1412.305297851563 1082.865600585938 1352.852294921875 1191.579711914063 C 1293.3994140625 1300.293823242188 1210.1650390625 1385.226806640625 1103.149536132813 1446.37841796875 C 996.1343383789063 1507.529907226563 873.8311767578125 1538.105834960938 736.2400512695313 1538.105834960938 C 598.64892578125 1538.105834960938 475.9207153320313 1507.529907226563 368.055908203125 1446.37841796875 C 260.191162109375 1385.226806640625 176.5325927734375 1300.293823242188 117.079345703125 1191.579711914063 C 57.6263427734375 1082.865600585938 27.9000244140625 958.0145263671875 27.9000244140625 817.026123046875 L 27.9000244140625 -105.3448486328125 C 27.9000244140625 -149.509765625 43.187744140625 -186.4556884765625 73.763671875 -216.1824951171875 C 104.339599609375 -245.908935546875 143.40869140625 -260.7720947265625 190.970947265625 -260.7720947265625 Z"/></g></svg>